<?xml version="1.0" standalone="no"?>
<!DOCTYPE svg PUBLIC "-//W3C//DTD SVG 1.1//EN" "http://www.w3.org/Graphics/SVG/1.1/DTD/svg11.dtd" >
<!--
2013-9-30: Created.
-->
<svg>
<metadata>
Created by iconfont
</metadata>
<defs>

<font id="platform" horiz-adv-x="1024" >
  <font-face
    font-family="platform"
    font-weight="500"
    font-stretch="normal"
    units-per-em="1024"
    ascent="896"
    descent="-128"
  />
    <missing-glyph />
    
    <glyph glyph-name="attachment" unicode="&#58882;" d="M903.008 760q36-36 53.504-80.512t17.504-91.488-17.504-91.488-53.504-80.512l-383.008-380q-36-36-88.512-60t-111.008-28-119.488 16-112.992 72q-51.008 51.008-71.008 110.496t-16 118.496 27.488 111.008 59.488 88l340 336.992q8.992 8.992 26.496 4.512t26.496-13.504q8-8.992 12.992-26.496t-4-26.496l-339.008-336q-27.008-27.008-44.992-63.008t-20.992-76.992 12-83.008 54.016-80.992q35.008-35.008 77.504-49.504t84.512-12 80 18.496 64.992 43.008l382.016 379.008q27.008 27.008 38.496 56t11.008 57.504-13.504 55.488-36 50.016q-43.008 42.016-96.512 39.488t-107.488-56.512l-344.992-343.008q-23.008-23.008-22.496-51.008t18.496-46.016q22.016-22.016 50.496-18.016t46.496 22.016l312.992 311.008q8.992 8.992 26.496 4.512t26.496-13.504 14.016-26.496-4-26.496l-314.016-311.008q-36-36-68.992-50.016t-62.016-12.512-54.016 15.488-46.016 34.016q-16.992 16-30.496 40.992t-15.488 55.008 10.496 64 48.512 68.992q18.016 18.016 32 32.992 12 12.992 22.496 23.008t11.488 11.008l279.008 278.016q36 36 78.496 56.512t86.496 23.488 86.496-12 78.496-51.008z"  horiz-adv-x="1024" />

    
    <glyph glyph-name="tailor" unicode="&#58894;" d="M931.337874 48.54385500000001l-27.954801 0-55.912672 0 0-55.910381 0 0 0-27.953655c0-15.451924-12.503267-27.954679-27.954801-27.954679s-27.955824 12.503778-27.955824 27.954679l0 27.953655 0 55.910381L232.441247 48.54385500000001l-55.911648 0L176.529599 104.45218899999998 176.529599 663.547811l0 0-55.911648 0L92.661103 663.547811c-15.43823 0-27.955824 12.502755-27.955824 27.954679 0 15.424294 12.517594 27.954679 27.955824 27.954679l27.955824 0 55.911648 0L176.528575 803.321204c0 15.451924 12.516571 27.954679 27.955824 27.954679s27.955824-12.502755 27.955824-27.954679l0-27.954679 0-55.909357 443.417767 0-51.462131-55.909357L232.441247 663.547811l0-518.336312L841.847103 781.318074l39.530915-39.529295L270.798381 104.45218899999998l520.760372 0L791.558753 523.773394l55.911648 55.909357L847.470401 104.45218899999998l55.912672 0 27.954801 0c15.452557 0 27.955824-12.530384 27.955824-27.954679C959.293698 61.045586999999955 946.789407 48.54385500000001 931.337874 48.54385500000001z"  horiz-adv-x="1024" />

    
    <glyph glyph-name="username" unicode="&#58942;" d="M703.400215-99.07420400000001c-3.51915 0-7.078209 0.991584-10.240225 3.066849-30.28884 19.875676-80.136132 25.263383-97.079012 25.678846l-22.119787 0-35.287691-0.271176c-0.048095 0-0.095167 0-0.143263 0L92.740194-70.59968500000002c-10.326183 0-18.696828 8.370645-18.696828 18.696828l0 22.467711c-0.318248 6.266727-0.910743 40.603767 21.004383 78.307484 13.716396 23.598464 33.431414 43.86095 58.598606 60.225663 30.493501 19.828604 69.116147 33.909297 114.796536 41.84913 0.233314 0.039909 0.466628 0.075725 0.700965 0.107447 0.346901 0.047072 35.499515 4.858658 71.208808 14.273075 61.894675 16.317641 67.307965 30.743188 67.345828 30.884404 0.364297 1.430582 0.89437 2.803859 1.572822 4.095271 0.50756 2.699482 1.76418 12.858866-0.63752 40.079834-6.100952 69.136613-42.120306 109.995183-71.061452 142.825916-9.127891 10.354835-17.749246 20.133549-24.387433 29.722952-28.640294 41.37227-31.296797 88.416725-31.396057 90.39887-0.01535 0.311085-0.022513 0.62217-0.022513 0.933255 0 18.779715 9.363252 27.418466 17.624403 35.041074l0.433882 0.401136c0.271176 0.25071 0.442068 0.436952 0.542352 0.556679 0.093121 1.340531-0.566912 4.743024-1.013073 7.04137-0.169869 0.873903-0.339738 1.750877-0.50142 2.632967-7.179516 38.981826-7.670703 99.19214-1.175779 137.837298 2.409886 50.813293 46.224788 89.711208 48.105624 91.356684 0.071631 0.062422 0.143263 0.12382 0.214894 0.185218 6.290263 5.338588 12.671601 11.169387 16.727986 17.636682 0.487094 0.775666 0.827855 1.37737 1.066285 1.836835-0.304945 0.786922-0.741897 1.793856-1.094938 2.608407-2.436492 5.618974-6.118348 14.109346-4.02364 25.02393 1.263783 6.589069 6.078439 18.362206 24.118304 23.173792 7.261381 1.937119 15.022135 2.333138 20.689205 2.62171l1.122567 0.058328c22.38994 1.178849 46.272883 2.176572 70.435189 0.324388 174.730557-13.396101 234.920404-78.686107 237.396805-81.459267 0.140193-0.155543 0.276293-0.314155 0.409322-0.474814 13.986549-16.756639 24.347524-37.635155 30.7964-62.055334 2.01489-7.619538 3.309372-14.016225 4.062526-20.072151 6.102998-35.464723 5.084808-71.904657 3.78214-96.269577-0.732687-13.675464-2.257413-28.030403-4.800329-45.175899-0.691755-4.656043 0.068562-5.564739 0.355087-5.906523 0.75827-0.906649 1.686409-1.892093 2.667759-2.934842 3.862981-4.099365 9.152451-9.713222 11.964496-18.721387 1.410116-4.502547 2.069125-9.360182 2.069125-15.267728 0-0.311085-0.008186-0.62217-0.022513-0.933255-0.099261-1.982144-2.755764-49.0266-31.395034-90.397846-6.639211-9.590426-15.259542-19.36914-24.387433-29.722952-28.942169-32.829709-64.960501-73.689303-71.061452-142.827963-2.4017-27.220968-1.14508-37.379329-0.63752-40.079834 0.678452-1.291412 1.208525-2.664689 1.572822-4.094248 0.036839-0.141216 5.471618-14.613836 67.648726-30.964222 35.7052-9.388834 70.557986-14.146185 70.90591-14.193257 0.303922-0.040932 0.606821-0.090051 0.908696-0.145309 46.095851-8.549723 84.956927-22.991644 115.505687-42.923602 25.252127-16.476253 44.930305-36.7019 58.489112-60.114123 21.50171-37.128619 20.626783-70.714552 20.195971-77.443813l0-22.332634c0-10.326183-8.370645-18.696828-18.696828-18.696828L775.884063-70.602755c-10.326183 0-18.696828 8.370645-18.696828 18.696828s8.370645 18.696828 18.696828 18.696828l158.188812 0L934.072875-28.897911000000022c0 0.686638 0.00921 1.106194 0.081864 1.769296 0.104377 1.508353 1.627057 28.332279-16.349363 58.130955-10.82044 17.937534-26.589588 33.609469-46.870494 46.580898-26.100448 16.693194-59.762105 28.967752-100.05274 36.482913-4.63967 0.642636-39.012526 5.564739-75.080999 15.059997-70.761624 18.629289-87.964424 39.353286-93.189426 54.395888-4.004197 7.765871-6.245238 23.195282-2.984984 60.153008 7.18054 81.369216 49.41955 129.282458 80.260975 164.268274 8.747221 9.921977 16.301268 18.491143 21.693068 26.279526 21.120017 30.510898 24.437575 66.300009 24.765033 70.606081-0.032746 2.252297-0.260943 3.223415-0.36225 3.549849-0.248663 0.798179-1.89721 2.547009-3.490497 4.238534-1.25048 1.327228-2.667759 2.832512-4.136204 4.587482-7.950066 9.504468-10.782577 21.079084-8.66024 35.384905 2.367931 15.960507 3.781116 29.206182 4.449335 41.684378 1.951445 36.502355 0.913812 63.747883-3.363607 88.341001-0.057305 0.326435-0.105401 0.654916-0.145309 0.983397-0.531096 4.438079-1.530866 9.354042-3.14769 15.46932-4.986571 18.884093-12.726859 34.770921-23.006993 47.232744-1.714038 1.747807-15.385409 15.125489-45.883003 29.67588-54.882981 26.183336-120.791064 35.849486-166.417217 39.34817-21.934568 1.681292-44.442188 0.732687-65.614393-0.382717l-1.178849-0.060375c-1.766226-0.090051-4.735861-0.2415-7.55814-0.525979 2.447748-5.841032 5.453199-14.632255 2.296299-25.136493-1.184989-3.939729-3.003404-7.792477-5.723352-12.129248-6.732331-10.733459-15.923668-19.23611-24.054859-26.145473-1.597381-1.441838-34.223452-31.356149-35.351136-65.738213-0.028653-0.86981-0.11768-1.736551-0.267083-2.594081-5.972015-34.304294-5.568832-90.780563 0.898463-125.894292 0.140193-0.765433 0.288572-1.52575 0.435928-2.282996 1.980097-10.205433 5.294586-27.284413-10.879792-42.202171l-0.434905-0.402159c-2.086521-1.924839-4.943592-4.560876-5.41636-5.468548l0 0c0.00307 0-0.13303-0.426719-0.164752-1.584078 0.328481-4.295839 3.654226-40.060391 24.76401-70.554916 5.3918-7.788383 12.945847-16.356526 21.693068-26.279526 30.841426-34.984792 73.079412-82.899058 80.259952-164.266227 3.260254-36.95875 1.019213-52.388161-2.984984-60.154032-5.226025-15.042601-22.427802-35.766598-93.189426-54.395888-36.365232-9.574053-71.006194-14.497179-75.18947-15.074324-39.83424-6.958482-73.196069-18.883069-99.160417-35.44528-20.185738-12.876262-35.971259-28.599362-46.919613-46.732347-18.282389-30.281677-17.133216-57.860802-17.055444-59.33641 0.050142-0.543376 0.054235-0.867764 0.054235-1.433652l0-4.309142 427.01135 0 35.287691 0.271176c0.047072 0 0.095167 0 0.143263 0l22.423709 0c0.141216 0 0.280386-0.001023 0.421602-0.005117 2.895957-0.064468 71.446215-1.943258 116.949572-31.803333 8.633634-5.665023 11.039427-17.254989 5.374404-25.888624C715.458855-96.10456899999997 709.488887-99.07420400000001 703.400215-99.07420400000001zM631.466905 206.12379999999996c0.454348-0.36839 0.890276-0.757247 1.305739-1.164522C632.378671 205.346087 631.943766 205.73699 631.466905 206.12379999999996zM414.041968 206.12379999999996c-0.471744-0.382717-0.901533-0.768503-1.292436-1.152243C413.160901 205.37371700000006 413.592736 205.75847999999996 414.041968 206.12379999999996z"  horiz-adv-x="1024" />

    
    <glyph glyph-name="switch" unicode="&#58922;" d="M618.688 746.688l0-213.376L64 533.312 64 448l896 0L618.688 746.688zM405.312 21.312000000000012l0 213.376L960 234.688 960 320 64 320 405.312 21.312000000000012z"  horiz-adv-x="1024" />

    
    <glyph glyph-name="building" unicode="&#58884;" d="M972.176785 547.3925429999999l123.817379-55.676535 0-192.783934 0-13.486618 9.318742-10.45901 70.303421-78.757132 0-324.229313 72.190761 0 0 337.794571 0 13.565257-9.279422 10.419691-70.303421 78.717813L1168.224245 512.398111 1168.224245 533.119533l-18.204969 10.45901-177.842491 82.256576-364.217333-116.779173 0-625.731905 364.217333 0L972.176785 547.3925429999999zM260.334984 718.550705c-23.866989-6.251814-47.026226-12.34635-69.595669-18.322927L190.739316 590.48681c22.569443 4.521752 45.728679 9.122144 69.595669 13.840495L260.334984 718.550705zM912.411013 525.648812l0-91.103483c-20.603464-4.128557-40.617133-8.060515-60.119648-11.953154L852.291364 509.842338C871.793879 514.953884 891.807549 520.222709 912.411013 525.648812M701.579388 231.89217799999994c0-25.793649 0-51.626618 0-77.380947l-43.80202 0 0 74.549937C672.011059 230.00483799999995 686.637945 230.94850799999995 701.579388 231.89217799999994M798.816726 238.22263199999998l0-83.7114-51.036824 0 0 80.408555C764.333449 235.98141499999997 781.31951 237.043044 798.816726 238.22263199999998M912.411013 245.53607499999998l0-91.024844-60.119648 0 0 87.132204C871.793879 242.90166299999999 891.807549 244.199209 912.411013 245.53607499999998M701.579388 350.95188700000006l0-77.459586c-14.941443-1.454825-29.568329-2.909649-43.80202-4.325155l0 74.628576C672.011059 346.115578 686.677265 348.51407300000005 701.579388 350.95188700000006M798.816726 366.87631999999996l0-83.7114c-17.497216-1.730062-34.483278-3.460124-51.036824-5.072227l0 80.447875C764.333449 361.214299 781.31951 364.04531 798.816726 366.87631999999996M912.411013 385.513804L912.411013 294.41032099999995c-20.603464-2.044619-40.617133-4.010598-60.119648-5.937258l0 87.210844C871.793879 378.868794 891.807549 382.13232000000005 912.411013 385.513804M701.579388 470.129555l0-77.498906c-14.902123-2.948969-29.52901-5.819299-43.80202-8.689629l0 74.667895C672.050378 462.383596 686.677265 466.197596 701.579388 470.129555M798.816726 495.726606l0-83.79004c-17.497216-3.420804-34.483278-6.802289-51.036824-10.105134l0 80.487194C764.333449 486.643781 781.31951 491.126214 798.816726 495.726606M415.254157 759.3644360000001C387.179972 751.972353 359.852859 744.776869 333.312138 737.817302l0-118.98107c26.540721 5.268825 53.867834 10.694928 81.942019 16.278309L415.254157 759.3644360000001zM127.749338 358.737165c-20.446185-1.297546-40.341896-2.555773-59.765772-3.85332l0-101.719771 59.726452 0C127.710018 288.315785 127.710018 323.50681599999996 127.749338 358.737165M260.334984 367.30883500000004c-23.866989-1.533464-47.026226-3.027608-69.595669-4.521752l0-109.623008 69.595669 0L260.334984 367.30883500000004zM415.254157 377.33533c-28.074185-1.808701-55.401298-3.578082-81.942019-5.308144l0-118.863111 81.942019 0L415.254157 377.33533zM127.749338 521.1270589999999C107.342472 517.784894 87.407442 514.521369 67.983566 511.336482l0-101.759091c19.423876 1.92666 39.319587 3.85332 59.765772 5.897938L127.749338 521.1270589999999zM260.334984 542.870791c-23.866989-3.931959-47.026226-7.745959-69.595669-11.40268l0-109.701647c22.569443 2.201897 45.728679 4.521752 69.595669 6.880928L260.334984 542.870791zM415.254157 568.2319239999999c-28.074185-4.600392-55.401298-9.043505-81.942019-13.447299l0-118.902431c26.540721 2.634412 53.867834 5.386783 81.942019 8.139154L415.254157 568.2319239999999zM127.749338 683.674231C107.342472 678.287448 87.446761 673.057943 67.983566 667.907077L67.983566 566.1086660000001c19.463195 3.85332 39.358906 7.824598 59.765772 11.874515L127.749338 683.674231zM496.76366 896l236.03548-123.502822L751.004109 761.998848l0-20.682103 0-165.57478-72.190761 0L678.813347 720.634643l-182.049687 94.406328 0-931.71693L0-116.67595900000003 0 736.755673 496.76366 896z"  horiz-adv-x="1248" />

    
    <glyph glyph-name="apps" unicode="&#58993;" d="M417.545768 149.01001099999996L417.545768 149.01001099999996l0 141.217279L276.327466 290.22729000000004c-77.992305 0-141.217279-63.224973-141.217279-141.217279s63.224973-141.217279 141.217279-141.217279S417.545768 71.01668299999994 417.545768 149.01001099999996L417.545768 149.01001099999996zM488.153896 149.01001099999996c0-116.989481-94.837972-211.82643-211.82643-211.82643s-211.82643 94.836949-211.82643 211.82643c0 116.988458 94.837972 211.82643 211.82643 211.82643l141.217279 0 70.609151 0 0-70.609151L488.153896 149.01001099999996zM605.835132 149.01001099999996l0 141.217279 141.217279 0c77.992305 0 141.217279-63.224973 141.217279-141.217279s-63.224973-141.217279-141.217279-141.217279C669.061129 7.791708999999969 605.835132 71.01668299999994 605.835132 149.01001099999996zM535.227004 149.01001099999996c0-116.989481 94.837972-211.82643 211.82643-211.82643 116.988458 0 211.82643 94.836949 211.82643 211.82643 0 116.988458-94.837972 211.82643-211.82643 211.82643l-141.217279 0-70.609151 0 0-70.609151L535.227004 149.01001099999996zM417.545768 619.734956l0-141.217279L276.327466 478.517677c-77.992305 0-141.217279 63.224973-141.217279 141.217279s63.224973 141.217279 141.217279 141.217279S417.545768 697.728284 417.545768 619.734956zM488.153896 619.734956c0 116.989481-94.837972 211.82643-211.82643 211.82643S64.501036 736.724437 64.501036 619.734956s94.837972-211.82643 211.82643-211.82643l141.217279 0 70.609151 0 0 70.609151L488.153896 619.734956zM605.835132 619.734956l0-141.217279 141.217279 0c77.992305 0 141.217279 63.224973 141.217279 141.217279s-63.224973 141.217279-141.217279 141.217279C669.061129 760.953258 605.835132 697.728284 605.835132 619.734956zM535.227004 619.734956L535.227004 619.734956c0 116.989481 94.837972 211.82643 211.82643 211.82643 116.988458 0 211.82643-94.837972 211.82643-211.82643s-94.837972-211.82643-211.82643-211.82643l-141.217279 0-70.609151 0 0 70.609151L535.227004 619.734956z"  horiz-adv-x="1024" />

    
    <glyph glyph-name="users" unicode="&#58958;" d="M569.6 224c115.2 57.6 198.4 179.2 198.4 320C768 736 608 896 416 896S64 736 64 544c0-140.8 83.2-262.4 198.4-320-147.2-57.6-249.6-192-262.4-352h64c19.2 179.2 166.4 320 352 320s332.8-140.8 352-320h64c-12.8 160-121.6 300.8-262.4 352zM128 544C128 704 256 832 416 832S704 704 704 544 576 256 416 256 128 384 128 544zM761.6 224c115.2 57.6 198.4 179.2 198.4 320C960 704 851.2 838.4 704 883.2v-70.4c108.8-38.4 192-147.2 192-268.8s-83.2-230.4-192-268.8v-96c134.4-38.4 243.2-160 256-307.2h64c-12.8 160-121.6 300.8-262.4 352z"  horiz-adv-x="1024" />

    
    <glyph glyph-name="profile" unicode="&#58883;" d="M568.02315 227.01383999999996a351.815517 351.815517 0 1 1-304.480338 0A415.781974 415.781974 0 0 1 0.001006-128h63.966458a351.815517 351.815517 0 0 0 703.631033 0h63.966458a415.781974 415.781974 0 0 1-263.541805 355.01384zM127.933921 543.6478050000001a287.849059 287.849059 0 1 0 287.84906-287.849059 287.209395 287.209395 0 0 0-287.84906 287.849059zM831.564955 575.631033h191.899373v-63.966457h-191.899373zM831.564955 447.698118h191.899373v-63.966457h-191.899373zM767.598497 319.76520300000004h255.865831v-63.966457h-255.865831z"  horiz-adv-x="1024" />

    
    <glyph glyph-name="photo" unicode="&#58913;" d="M846.560427 668.670833L762.801867 668.670833l-27.919179 55.636757c-16.464763 32.373844-25.008756 42.335185-55.837334 42.335185L344.01316 766.642775c-30.851092 0-41.029383-13.251428-55.838358-42.335185l-27.919179-55.636757-83.759583 0c-61.677623 0-111.677739-49.798515-111.677739-111.252023l0-445.078704c0-61.453508 50.000116-111.273514 111.677739-111.273514l670.065411 0c61.678646 0 111.676716 49.818982 111.676716 111.273514L958.238166 557.41881C958.238166 618.872318 908.239073 668.670833 846.560427 668.670833zM902.399808 105.68829600000004c0-30.738523-25.00978-55.636757-55.838358-55.636757L176.493993 50.051540000000045c-30.850068 0-55.837334 24.898234-55.837334 55.636757L120.656658 550.7670009999999c0 30.714986 24.988289 55.63471 55.837334 55.63471l111.677739 0 27.919179 55.617313c19.73029 32.371798 24.988289 55.638804 55.837334 55.638804l279.195883 0c30.828578 0 36.084531-23.267006 55.837334-55.638804l27.918156-55.617313 111.678762 0c30.828578 0 55.838358-24.921771 55.838358-55.63471l0-445.078704L902.399808 105.68829600000004zM511.528233 572.409942c-123.35627 0-223.356501-99.645128-223.356501-222.553168 0-122.884503 100.000232-222.525537 223.356501-222.525537S734.883711 226.97227099999998 734.883711 349.856774C734.883711 472.764814 634.884503 572.409942 511.528233 572.409942zM511.528233 182.97004100000004c-92.528715 0-167.515074 74.719263-167.515074 166.88878 0 92.171564 74.986359 166.912317 167.515074 166.912317 92.506201 0 167.515074-74.740753 167.515074-166.912317C679.04433 257.68827999999996 604.035458 182.97004100000004 511.528233 182.97004100000004z"  horiz-adv-x="1025" />

    
    <glyph glyph-name="disabled" unicode="&#59122;" d="M1024-12.8c0-63.616-51.584-115.2-115.2-115.2h-793.6c-63.616 0-115.2 51.584-115.2 115.2v793.6c0 63.616 51.584 115.2 115.2 115.2h793.6c63.616 0 115.2-51.584 115.2-115.2v-793.6zM128 832c-38.4 0-64-25.6-64-64v-768c0-38.4 25.6-64 70.4-64h761.6c38.4 0 64 19.2 64 57.6v774.4c0 38.4-25.6 64-64 64h-768zM512 51.2c-185.6 0-332.8 147.2-332.8 332.8s147.2 332.8 332.8 332.8 332.8-147.2 332.8-332.8c-6.4-185.6-153.6-332.8-332.8-332.8zM512 652.8c-147.2 0-268.8-121.6-268.8-268.8s121.6-268.8 268.8-268.8 268.8 121.6 268.8 268.8-121.6 268.8-268.8 268.8zM663.097 192.146l-303.199 363.82 44.248 36.876 303.199-363.82-44.248-36.876z"  horiz-adv-x="1024" />

    
    <glyph glyph-name="preview" unicode="&#58977;" d="M515.2 672c-307.2 0-492.8-313.6-492.8-313.6s214.4-304 492.8-304 492.8 304 492.8 304S822.4 672 515.2 672zM832 243.20000000000005c-102.4-86.4-211.2-140.8-320-140.8s-217.6 51.2-320 140.8c-35.2 32-70.4 64-99.2 99.2-6.4 6.4-9.6 12.8-16 19.2 3.2 6.4 9.6 12.8 12.8 19.2 25.6 35.2 57.6 70.4 92.8 102.4 99.2 89.6 208 144 329.6 144s230.4-54.4 329.6-144c35.2-32 64-67.2 92.8-102.4 3.2-6.4 9.6-12.8 12.8-19.2-3.2-6.4-9.6-12.8-16-19.2C902.4 310.4 870.4 275.20000000000005 832 243.20000000000005zM512 550.4c-96 0-169.6-76.8-169.6-169.6 0-96 76.8-169.6 169.6-169.6 96 0 169.6 76.8 169.6 169.6C681.6 473.6 604.8 550.4 512 550.4zM512 256c-67.2 0-121.6 54.4-121.6 121.6 0 67.2 54.4 121.6 121.6 121.6 67.2 0 121.6-54.4 121.6-121.6C633.6 313.6 579.2 256 512 256z"  horiz-adv-x="1024" />

    
    <glyph glyph-name="move" unicode="&#58932;" d="M1016.881326 366.81588999999997L1008.393369 358.71229300000005C1008.249234 358.552143 1008.025023 358.52011300000004 1007.864873 358.37597700000003L880.001001 242.76359100000002C870.648233 233.811198 855.514044 233.811198 846.129246 242.76359100000002L840.652111 250.83515799999998C831.299343 259.77153599999997 834.326181 274.28113900000005 843.678949 283.23353099999997L920.871317 352.450422 546.536378 352.450422 546.536378-22.25286200000005 615.945449 54.29890499999999C624.897842 63.65167299999996 639.375414 66.694526 648.327807 57.34175800000003L656.399374 51.86462300000005C665.335752 42.479825000000005 665.335752 27.34563700000001 656.399374 17.992868000000044L537.840225-111.88889600000005C537.680075-112.06506100000001 537.63203-112.25724100000002 537.47188-112.41739099999995L529.368283-120.88933399999996C524.932124-125.58173299999999 519.006569-127.90391 513.129058-127.87188000000003 507.219518-127.90391 501.342008-125.58173299999999 496.841789-120.88933399999996L488.738192-112.41739099999995C488.578042-112.25724100000002 488.546012-112.04904599999998 488.385862-111.88889600000005L372.78949 15.990992000000006C363.837097 25.343759999999975 363.837097 40.47794799999997 372.78949 49.862746000000016L380.861057 55.33988099999999C389.797435 64.69264899999996 404.307038 61.649797000000035 413.259431 52.297027999999955L482.476322-24.895339000000035 482.476322 352.450422 103.128683 352.450422 180.321051 283.23353099999997C189.673819 274.28113900000005 192.716672 259.77153599999997 183.363904 250.83515799999998L177.886769 242.76359100000002C168.501971 233.811198 153.367782 233.811198 144.015014 242.76359100000002L16.135127 358.37597700000003C15.974977 358.52011300000004 15.766781 358.552143 15.606631 358.71229300000005L7.134689 366.81588999999997C2.44229 371.316109 0.120113 377.193619 0.152143 383.103159 0.120113 388.996684 2.44229 394.906225 7.134689 399.342383L8.624085 400.76772C11.763028 406.068689 16.359337 410.328683 21.900532 413.083266L146.016891 526.373475C155.369659 535.309853 170.503847 535.309853 179.888646 526.373475L185.36578 518.301908C194.718549 509.349515 191.675696 494.871942 182.322928 485.91955L105.77116 416.510479 482.476322 416.510479 482.476322 792.847294 413.259431 715.6549259999999C404.307038 706.318173 389.797435 703.275321 380.861057 712.628089L372.78949 718.105224C363.837097 727.490022 363.837097 742.62421 372.78949 751.976978L488.385862 879.840851C488.546012 880.001001 488.578042 880.225211 488.738192 880.369346L496.841789 888.857304C501.342008 893.549703 507.219518 895.855865 513.129058 895.823835 519.006569 895.855865 524.932124 893.549703 529.368283 888.857304L530.793619 887.367907C536.078574 884.21295 540.354582 879.616641 543.109165 874.075446L656.399374 749.975102C665.335752 740.622333 665.335752 725.488145 656.399374 716.103347L648.327807 710.626212C639.375414 701.273444 624.897842 704.300282 615.945449 713.669065L546.536378 790.204817 546.536378 416.510479 918.22884 416.510479 841.677072 485.91955C832.324304 494.871942 829.297466 509.349515 838.650235 518.301908L844.127369 526.373475C853.496153 535.309853 868.646356 535.309853 877.999124 526.373475L1007.864873 407.814326C1008.057053 407.670191 1008.249234 407.606131 1008.393369 407.445981L1016.881326 399.342383C1021.55771 394.906225 1023.879887 388.996684 1023.847857 383.103159 1023.879887 377.193619 1021.55771 371.316109 1016.881326 366.81588999999997Z"  horiz-adv-x="1024" />

    
    <glyph glyph-name="email" unicode="&#58888;" d="M818.97651 831.775256L204.713428 831.775256c-113.073288 0-204.714452-93.713358-204.714452-209.238488l0-413.642878c0-115.52513 91.641163-208.357422 204.714452-208.357422l614.262058 0c113.134687 0 204.771757 92.833315 204.771757 208.357422L1023.747243 622.5367679999999C1023.748267 738.060875 932.110173 831.775256 818.97651 831.775256zM709.783599 413.579689l249.786996 150.083204 0-296.587905L709.783599 413.579689zM204.713428 767.9731380000001l614.262058 0c72.988338 0 133.375683-58.618049 139.984195-132.059712L511.875157 367.22801100000004 64.50206 636.087389C71.221088 709.44821 131.840724 767.9731380000001 204.713428 767.9731380000001zM63.87375 563.845041l250.091942-150.266375L63.87375 266.896932 63.87375 563.845041zM818.97651 64.582133L204.713428 64.582133c-72.79391 0-133.36238 57.398268-140.190903 130.530892l309.642223 181.605128c0.189312 0.11461 0.370437 0.23843 0.555655 0.356111l121.31295-72.890101c4.840238-2.889817 10.308787-4.397147 15.84078-4.397147 5.529947 0 10.997472 1.50733 15.838733 4.397147l121.314996 72.891124c0.186242-0.118704 0.367367-0.242524 0.557702-0.357134l309.352627-181.435259C952.219163 122.06942900000001 891.884007 64.582133 818.97651 64.582133z"  horiz-adv-x="1040" />

    
    <glyph glyph-name="logout" unicode="&#58939;" d="M704-64H64V832h640v-64h64V896H0v-1024h768v128h-64v-64zM1015.68 401.28L832 582.4a32 32 0 1 1-45.44-45.44l123.52-120.96H352a32 32 0 0 1 0-64h568.96l-131.84-131.84a32 32 0 0 1 45.44-45.44l181.12 181.12a32.64 32.64 0 0 1 0 45.44z"  horiz-adv-x="1024" />

    
    <glyph glyph-name="play" unicode="&#58972;" d="M122.112664-57.98846000000003l816.371172 407.954319c0.723477 0.342808 1.411139 0.689708 2.099824 1.051959l1.107217 0.550539 0 0.077771c11.644201 6.757914 19.488867 19.377326 19.488867 33.827433 0 14.452153-7.844665 27.070542-19.488867 33.828456l0 0.228197L120.241037 830.044846c-1.14508 0.649799-2.310625 1.24127-3.51301 1.77646l-2.481518 1.240247-0.230244-0.170892c-4.047176 1.431605-8.41874 2.196015-12.96222 2.196015-21.589714 0-39.096437-17.506722-39.096437-39.096437 0-0.192382 0-0.382717 0-0.593518l0-821.276902 0.01842 0c0.438998-21.210068 17.754363-38.255279 39.078017-38.255279C108.80559-64.13545999999997 116.040365-61.88725599999998 122.112664-57.98846000000003z"  horiz-adv-x="1024" />

    
    <glyph glyph-name="edit" unicode="&#58886;" d="M989.845 502.963c-1.478 13.473-12.889 23.96-26.755 23.96-13.865 0-25.276-10.487-26.752-23.96l-0.173 0 0-467.327c0-42.895-34.894-77.787-77.788-77.787l-691.11 0c-42.89 0-77.786 34.891-77.786 77.787l0 696.722c0 42.893 34.896 77.788 77.786 77.788l463.972 0.038c14.528 0.394 26.191 12.265 26.191 26.888s-11.663 26.496-26.191 26.888l0 0.039-463.972 0c-72.587 0-131.639-59.054-131.639-131.639l0-696.724c0-72.586 59.053-131.637 131.639-131.637l691.11 0c72.588 0 131.639 59.052 131.639 131.637l0 467.326-0.172 0zM296.383 220.952l-0.122-0.502c-2.204-9.35-4.103-26.841 7.958-38.894 7.478-7.491 17.05-9.599 25.465-9.599 5.136 0 9.846 0.788 13.387 1.618l147.077 38.835 468.748 468.748c16.388 16.387 25.413 38.174 25.413 61.347 0 23.175-9.025 44.963-25.413 61.349l-32.439 32.439c-33.831 33.827-88.87 33.836-122.703 0.001l-468.792-468.793-38.578-146.551zM378.206 323.259l67.73-67.722-91.081-23.352 23.351 91.074zM410.621 367.009l366.34 366.337 78.983-78.982-366.339-366.339-78.983 78.983zM888.374 798.219l32.441-32.441c12.832-12.832 12.832-33.709 0-46.543l-26.796-26.792-78.978 78.982 26.792 26.794c12.834 12.836 33.715 12.828 46.54 0.001z"  horiz-adv-x="1024" />

    
    <glyph glyph-name="return" unicode="&#58903;" d="M622.650611 611.098251L447.745069 611.098251 447.745069 753.1761309999999 63.980685 561.2949619999999l383.76336-191.882192L447.744046 511.165238l189.391465 0c149.914358 0 224.855164-62.789045 224.855164-188.368158 0-129.928165-77.435627-194.876386-232.338602-194.876386L187.952184 127.92069400000003l0-99.93199L634.146433 27.988703999999984c211.184817 0 316.777737 95.104031 316.777737 285.311071C950.924169 511.821177 841.510224 611.098251 622.650611 611.098251z"  horiz-adv-x="1024" />

    
    <glyph glyph-name="bayonet" unicode="&#58892;" d="M64 896H0v-1024h64V832h960V896H64zM192 576h64v-64h64V576h64V704H192v-128zM512 576h64v-64h64V576h64V704H512v-128zM832 576h64v-64h64V576h64V704h-192v-128zM192 256h64v-64h64v64h64V384H192v-128zM512 256h64v-64h64v64h64V384H512v-128zM832 256h64v-64h64v64h64V384h-192v-128z"  horiz-adv-x="1024" />

    
    <glyph glyph-name="folder" unicode="&#59240;" d="M912.486 443.959v0h-687.071c-25.518 0-47.091-16.669-54.521-39.729v0l-59.946-184.682v510.65h286.299c0-63.238 51.229-114.467 114.471-114.467v0h286.236v-114.469h57.229v114.469c0 31.588-25.639 57.236-57.229 57.236h-286.304c-31.586 0-57.234 25.645-57.234 57.231v0c0 31.589-25.58 57.234-57.234 57.234v0h-286.236c-31.587 0-57.234-25.646-57.234-57.234v-686.941c0-31.589 25.646-57.229 57.234-57.229h686.943c25.518 0 47.091 16.663 54.521 39.729h0.063l117.116 360.974c0.001 31.587-25.516 57.169-57.106 57.234v0zM800.864 43.25300000000004h-689.914l111.498 343.471h689.909l-111.494-343.471z"  horiz-adv-x="1024" />

    
    <glyph glyph-name="password" unicode="&#58943;" d="M259.64544 438.55872l504.7296 0c20.35712 0 38.44096-8.2944 51.99872-21.83168 13.57824-13.57824 21.83168-31.66208 21.83168-52.0192l0-342.75328c0-19.5584-8.25344-38.42048-21.83168-51.97824l0 0c-13.55776-12.8-31.6416-21.07392-51.99872-21.07392L259.64544-51.09760000000006c-20.33664 0-39.19872 8.27392-51.99872 21.07392-13.57824 13.55776-21.83168 31.66208-21.83168 51.97824L185.81504 364.70784000000003c0 20.35712 8.27392 38.44096 21.83168 52.0192l0 0 0 0C221.20448 430.24384 239.3088 438.55872 259.64544 438.55872L259.64544 438.55872zM764.35456 398.60224L259.64544 398.60224c-9.80992 0-18.08384-3.72736-24.12544-9.76896l0 0c-6.02112-6.0416-9.78944-15.09376-9.78944-24.14592l0-342.75328c0-9.0112 3.76832-17.32608 9.78944-23.36768 6.0416-6.02112 15.07328-9.78944 24.12544-9.78944l504.7296 0c9.05216 0 17.36704 3.76832 24.12544 9.78944l0 0c6.06208 6.0416 9.80992 14.336 9.80992 23.36768L798.3104 364.70784000000003c0 9.03168-3.76832 18.10432-9.80992 24.14592C781.7216 394.87488 773.4272 398.60224 764.35456 398.60224L764.35456 398.60224zM753.07008 544.7884799999999c0-10.5472-9.05216-19.59936-20.35712-19.59936-11.28448 0-19.53792 9.05216-19.53792 19.59936 0 55.74656-22.60992 106.20928-58.75712 142.37696-36.94592 36.1472-86.67136 58.75712-142.39744 58.75712-55.76704 0-106.22976-22.60992-142.39744-58.75712-36.16768-36.16768-58.75712-86.6304-58.75712-142.37696l0-118.272c0-10.5472-9.05216-19.59936-19.59936-19.59936-11.28448 0-20.33664 9.03168-20.33664 19.59936l0 118.272c0 66.29376 27.11552 126.5664 70.79936 170.25024 43.7248 43.68384 103.97696 70.81984 170.2912 70.81984 66.29376 0 126.5664-27.11552 170.27072-70.81984C725.95456 671.3344 753.07008 611.06176 753.07008 544.7884799999999L753.07008 544.7884799999999z"  horiz-adv-x="1024" />

    
    <glyph glyph-name="version" unicode="&#59021;" d="M914.894958 896 109.105042 896c-21.501383 0-38.907264-14.078286-38.907264-31.740136L70.197778-94.855388c0-25.340915 34.811763-40.443077 60.664616-26.108822l350.677314 194.280351c13.054411 7.167128 29.948355 7.423096 43.002765 0.255969l368.851102-196.328102c25.852853-13.822317 60.152678 1.279844 60.152678 26.62076L953.546253 864.259864C953.802222 881.665745 936.39634 896 914.894958 896zM562.681831 149.338887l-101.363662 0-196.328102 547.773322 90.61297 0 155.885025-454.344695 2.30372 0 155.117118 454.344695 90.61297 0L562.681831 149.338887z"  horiz-adv-x="1024" />

    
    <glyph glyph-name="region" unicode="&#59844;" d="M896 128l0 73.024 0.384 0.192L896 202.11199999999997 896 501.504 896 501.952 896 518.144 896 520.384 896 582.0160000000001 896 641.28 896 641.7280000000001 896 677.248 896 704l-10.752 0-5.632 0-29.632 0-174.464 0L605.632 704 535.744 704 465.856 704 326.016 704 256.128 704 128 704l0-330.176 0-69.888 0-69.888 0-33.984L128 128l381.184 0L896 128zM832 345.53599999999994l-47.232 107.52L832 473.792 832 345.53599999999994zM733.888 640l-25.344-11.136L703.68 640 733.888 640zM493.952 640l38.784-88.384L415.552 500.16 354.176 640 493.952 640zM192 531.712l47.808-108.8L192 401.984 192 531.712zM411.136 192L349.888 331.52 291.264 305.72799999999995 341.248 192 192 192l0 0.256 124.992 54.912L291.264 305.72799999999995 192 262.144 192 332.03200000000004l132.096 58.048L214.336 640l69.888 0L382.72 415.808l58.624 25.728 175.808 77.248L591.36 577.408 563.84 640l69.888 0 41.472-95.488L832 613.6320000000001l0-69.888-131.072-57.792L830.528 192l-69.888 0-117.824 268.16L467.072 382.976 408.448 357.24800000000005 481.024 192 411.136 192zM609.984 375.87199999999996L690.752 192 550.912 192 492.8 324.352 609.984 375.87199999999996zM0 832l0-832 1024 0L1024 832 0 832zM960 64L64 64 64 768l896 0L960 64z"  horiz-adv-x="1024" />

    
    <glyph glyph-name="system-config" unicode="&#58946;" d="M889.728 833.28L132.096 833.28C80.896 833.28 65.28 806.272 65.28 771.072L65.28 625.9200000000001c0-51.584 26.24-62.208 66.816-62.208l757.632 0c41.472 0 66.816 20.48 66.816 62.208L956.544 771.072C956.544 815.36 937.728 833.28 889.728 833.28zM912 605.312L109.824 605.312 109.824 791.808l802.176 0L912 605.312zM354.048 723.712l44.544 0 0-41.472-44.544 0 0 41.472ZM443.264 723.712l44.544 0 0-41.472-44.544 0 0 41.472ZM744.832 680.832l89.088 0c6.144 0 11.136 4.608 11.136 10.368l0 20.736c0 5.76-4.992 10.368-11.136 10.368l-89.088 0c-6.144 0-11.136-4.608-11.136-10.368L733.696 691.2C733.696 685.44 738.688 680.832 744.832 680.832zM175.872 723.712l44.544 0 0-41.472-44.544 0 0 41.472ZM264.96 723.712l44.544 0 0-41.472-44.544 0 0 41.472ZM744.832 680.832l89.088 0c6.144 0 11.136 4.608 11.136 10.368l0 20.736c0 5.76-4.992 10.368-11.136 10.368l-89.088 0c-6.144 0-11.136-4.608-11.136-10.368L733.696 691.2C733.696 685.44 738.688 680.832 744.832 680.832zM175.872 723.712l44.544 0 0-41.472-44.544 0 0 41.472ZM264.96 723.712l44.544 0 0-41.472-44.544 0 0 41.472ZM354.048 723.712l44.544 0 0-41.472-44.544 0 0 41.472ZM443.264 723.712l44.544 0 0-41.472-44.544 0 0 41.472ZM443.264 412.8l44.544 0 0-41.472-44.544 0 0 41.472ZM354.048 412.8l44.544 0 0-41.472-44.544 0 0 41.472ZM264.96 412.8l44.544 0 0-41.472-44.544 0 0 41.472ZM175.872 412.8l44.544 0 0-41.472-44.544 0 0 41.472ZM132.096 518.656c-51.328 0-66.816-27.008-66.816-62.208l0-145.024c0-51.584 26.24-62.208 66.816-62.208l337.152 0c3.84 14.208 8.448 28.032 13.824 41.472L109.824 290.688 109.824 477.184l528.128 0c27.392 17.28 57.088 31.36 88.448 41.472L132.096 518.656zM175.872 412.8l44.544 0 0-41.472-44.544 0 0 41.472ZM264.96 412.8l44.544 0 0-41.472-44.544 0 0 41.472ZM354.048 412.8l44.544 0 0-41.472-44.544 0 0 41.472ZM443.264 412.8l44.544 0 0-41.472-44.544 0 0 41.472ZM264.96 101.88800000000003l44.544 0 0-41.472-44.544 0 0 41.472ZM354.048 101.88800000000003l44.544 0 0-41.472-44.544 0 0 41.472ZM175.872 101.88800000000003l44.544 0 0-41.472-44.544 0 0 41.472ZM175.872 101.88800000000003l44.544 0 0-41.472-44.544 0 0 41.472ZM354.048 101.88800000000003l44.544 0 0-41.472-44.544 0 0 41.472ZM264.96 101.88800000000003l44.544 0 0-41.472-44.544 0 0 41.472ZM494.72-23.936000000000035L109.824-23.936000000000035 109.824 162.688l346.24 0c0.512 14.08 1.92 27.904 3.84 41.472L132.096 204.15999999999997c-51.328 0-66.816-27.008-66.816-62.208l0-145.024c0-51.584 26.24-62.208 66.816-62.208l385.92 0C509.44-52.096000000000004 501.632-38.27200000000005 494.72-23.936000000000035zM175.872 101.88800000000003l44.544 0 0-41.472-44.544 0 0 41.472ZM264.96 101.88800000000003l44.544 0 0-41.472-44.544 0 0 41.472ZM354.048 101.88800000000003l44.544 0 0-41.472-44.544 0 0 41.472ZM443.264 60.416000000000054l22.016 0c-3.072 13.568-5.376 27.392-7.04 41.472l-14.976 0L443.264 60.416000000000054zM1061.888 244.99199999999996l-52.48 0c-4.992 10.624-11.904 32.896-20.992 48.64l37.12 36.096c11.776 11.648 11.776 30.08 0 41.856l-42.368 42.112c-11.648 11.648-30.592 11.52-42.368-0.128l-35.072-37.12c-15.744 8.96-38.016 15.872-48.64 20.864l0 52.48c0 16.512-17.536 29.952-34.048 29.952l-59.904 0c-16.512 0-34.048-13.44-34.048-29.952l0-52.48c-10.624-4.992-32.768-12.032-48.64-20.992l-36.096 37.12c-11.648 11.648-30.08 11.648-41.856 0l-42.112-42.368c-11.648-11.648-11.52-30.592 0.128-42.368l37.12-35.072c-8.96-15.744-15.872-38.016-20.864-48.64l-52.48 0c-16.512 0-29.952-17.536-29.952-34.048L494.336 151.03999999999996c0-16.512 13.44-34.048 29.952-34.048l52.48 0c4.992-10.624 12.032-32.768 20.992-48.64l-37.12-36.096c-11.648-11.648-11.648-30.08 0-41.856l42.368-42.112c11.648-11.648 30.592-11.52 42.368 0.128l35.072 37.12c15.744-8.96 38.016-15.872 48.64-20.864l0-52.48c0-16.512 17.536-29.952 34.048-29.952l59.904 0c16.512 0 34.048 13.44 34.048 29.952l0 52.48c10.624 4.992 32.768 12.032 48.64 20.992l36.096-37.12c11.648-11.648 30.08-11.648 41.856 0l42.112 42.368c11.648 11.648 11.52 30.592-0.128 42.368l-37.12 35.072c8.96 15.744 16 38.016 20.864 48.64l52.48 0c16.512 0 29.952 17.536 29.952 34.048l0 59.904C1091.84 227.45600000000002 1078.4 244.99199999999996 1061.888 244.99199999999996L1061.888 244.99199999999996zM793.216 46.33600000000001c-74.368 0-134.656 60.288-134.656 134.656 0 74.368 60.288 134.656 134.656 134.656 74.368 0 134.656-60.288 134.656-134.656C927.872 106.62400000000002 867.712 46.33600000000001 793.216 46.33600000000001"  horiz-adv-x="1092" />

    
    <glyph glyph-name="ruler" unicode="&#58916;" d="M204.613 175.15599999999995l693.927 693.935 275.798-275.836-693.89-693.91-275.836 275.811zM245.562 175.15599999999995l234.884-234.863 652.971 652.963-234.877 234.892-65.248-65.248 72.076-72.063-20.474-20.466-72.061 72.063-63.031-63.024 145.659-145.659-20.459-20.466-145.659 145.659-63.018-63.008 72.061-72.078-20.474-20.466-72.063 72.07-63.031-63.031 145.687-145.644-20.474-20.483-145.687 145.651-63.001-63.008 72.055-72.048-20.466-20.476-72.055 72.058-63.031-63.037 145.659-145.644-20.468-20.476-145.659 145.66-63.023-63.018 72.063-72.063-20.468-20.459-72.063 72.05-66.325-66.34z"  horiz-adv-x="1449" />

    
    <glyph glyph-name="menu" unicode="&#59004;" d="M105.931034 595.862069C105.931034 615.363434 121.789652 631.172414 141.3498 631.172414L882.6502 631.172414C902.211443 631.172414 918.068966 615.499395 918.068966 595.862069 918.068966 576.3607039999999 902.210348 560.5517239999999 882.6502 560.5517239999999L141.3498 560.5517239999999C121.788557 560.5517239999999 105.931034 576.224743 105.931034 595.862069ZM105.931034 384C105.931034 403.501365 121.789652 419.310345 141.3498 419.310345L882.6502 419.310345C902.211443 419.310345 918.068966 403.637326 918.068966 384 918.068966 364.49863500000004 902.210348 348.689655 882.6502 348.689655L141.3498 348.689655C121.788557 348.689655 105.931034 364.36267399999997 105.931034 384ZM105.931034 172.13793099999998C105.931034 191.63929599999994 121.789652 207.44827599999996 141.3498 207.44827599999996L882.6502 207.44827599999996C902.211443 207.44827599999996 918.068966 191.775257 918.068966 172.13793099999998 918.068966 152.63656600000002 902.210348 136.827586 882.6502 136.827586L141.3498 136.827586C121.788557 136.827586 105.931034 152.50060499999995 105.931034 172.13793099999998Z"  horiz-adv-x="1024" />

    
    <glyph glyph-name="user-role" unicode="&#58933;" d="M698.097568 360.00669600000003C679.92676 367.013965 661.304501 372.90896899999996 642.456522 377.80293500000005 677.669515 396.155305 708.932337 421.959851 733.310566 453.214495 770.893673 501.375564 790.757412 559.102112 790.757412 619.943002 790.757412 693.130032 761.864698 761.8680019999999 709.383788 813.588319 656.902879 865.308637 587.154054 893.782618 512.890745 893.782618 438.627435 893.782618 368.878612 865.308637 316.397702 813.588319 263.916792 761.8680019999999 235.024076 693.130032 235.024076 619.943002 235.024076 558.990886 254.887818 501.375564 292.470921 453.214495 316.962012 421.848625 348.224835 396.155305 383.32497 377.80293500000005 346.983351 368.45991000000004 311.883215 355.22395700000004 278.36315 338.09507799999994 228.929518 312.957891 184.236097 280.146077 145.41151 240.54944799999998 106.586923 200.952814 74.75979 155.79485999999997 50.945871 106.18784800000003 26.45478 55.24611300000004 10.8798 0.9675899999999729 4.785243-55.20178599999997L3.882345-63.210098000000016 9.751178-68.88264900000001C20.24736-79.11548100000005 31.082129-89.01463899999999 42.142622-98.46889399999998L68.439507-121.04787099999999 68.778094-114.93041100000005 68.778094-110.37012900000002C68.778094 131.54748500000005 267.754105 327.63978799999995 513.229331 327.63978799999995 555.101197 327.63978799999995 595.73158 321.96723699999995 634.104718 311.289495 653.065565 330.086772 674.622241 346.54829199999995 698.097568 360.00669600000003L698.097568 360.00669600000003ZM364.364125 473.568942C324.636641 512.7206659999999 302.854241 564.6634369999999 302.854241 619.943002 302.854241 675.222567 324.749503 727.276564 364.364125 766.317062 404.09161 805.468786 456.798245 826.9354989999999 512.890745 826.9354989999999 568.983245 826.9354989999999 621.802743 805.35756 661.417364 766.317062 701.144847 727.165338 722.927249 675.222567 722.927249 619.943002 722.927249 564.6634369999999 701.03199 512.60944 661.417364 473.568942 621.802743 434.528445 568.983245 412.950505 512.890745 412.950505 456.798245 412.950505 404.09161 434.528445 364.364125 473.568942L364.364125 473.568942ZM1053.952 85.05481299999997L1053.952 117.08804499999997C1053.952 132.99343399999998 1064.899632 146.56306600000005 1079.684578 150.678444 1073.702882 177.70648400000005 1062.868113 203.06612099999995 1048.19603 225.64509799999996 1034.65257 218.30415100000005 1017.271796 220.19500300000004 1005.872718 231.42887299999995L982.848831 254.11908100000005C971.449754 265.35295699999995 969.418234 282.48183300000005 976.979998 295.82901300000003 954.06898 310.288456 928.336402 320.96619999999996 900.910893 326.86120300000005 896.622134 312.290533 882.965811 301.50156400000003 866.826517 301.50156400000003L834.322215 301.50156400000003C818.182921 301.50156400000003 804.413735 312.290533 800.237833 326.86120300000005 772.81233 320.96619899999996 747.079752 310.288456 724.168734 295.82901300000003 731.617635 282.48183300000005 729.698979 265.35295699999995 718.299901 254.11908100000005L695.276014 231.42887299999995C683.876936 220.19500300000004 666.496163 218.19291999999996 652.952702 225.64509799999996 638.28062 203.06612099999995 627.44585 177.70647799999995 621.464154 150.678444 636.2491 146.45183499999996 647.196732 132.99343399999998 647.196732 117.08804499999997L647.196732 85.05481299999997C647.196732 69.14942499999995 636.2491 55.579792999999995 621.464154 51.46441500000003 627.44585 24.436380999999983 638.28062-0.9232620000000225 652.952702-23.50224000000003 666.496163-16.161292000000003 683.876936-18.052138000000014 695.276014-29.286014000000023L718.299901-51.97622200000001C729.698979-63.21009200000003 731.730498-80.33897400000001 724.168734-93.68615199999999 747.079752-108.14559799999995 772.81233-118.82334000000003 800.237833-124.718345 804.526598-110.14767400000005 818.182921-99.358702 834.322215-99.358702L866.826517-99.358702C882.965811-99.358702 896.734997-110.14767400000005 900.910893-124.718345 928.336402-118.82334000000003 954.06898-108.14559799999995 976.979998-93.68615199999999 969.531097-80.33897400000001 971.449754-63.210098000000016 982.848831-51.97622200000001L1005.872718-29.286014000000023C1017.271796-18.052138000000014 1034.65257-16.050062000000025 1048.19603-23.50224000000003 1062.868113-0.9232620000000225 1073.702882 24.436380999999983 1079.684578 51.46441500000003 1064.899632 55.579792999999995 1053.952 69.14942499999995 1053.952 85.05481299999997L1053.952 85.05481299999997ZM850.574366-19.609311000000048C782.969922-19.609311000000048 728.11891 34.44676400000003 728.11891 101.07143199999996 728.11891 167.696095 782.969922 221.75216899999998 850.574366 221.75216899999998 918.178804 221.75216899999998 973.029822 167.696095 973.029822 101.07142599999997 973.029822 34.44676400000003 918.17881-19.609311000000048 850.574366-19.609311000000048L850.574366-19.609311000000048ZM768.07212 101.07143199999996C768.07212 56.167057 805.009631 19.764868999999976 850.574366 19.764868999999976 896.139101 19.764868999999976 933.076613 56.167057 933.076613 101.07143199999996 933.076613 145.97580800000003 896.139101 182.37799600000005 850.574366 182.37799600000005 805.009631 182.37799600000005 768.07212 145.97580800000003 768.07212 101.07143199999996L768.07212 101.07143199999996Z"  horiz-adv-x="1085" />

    
    <glyph glyph-name="boundary" unicode="&#58896;" d="M512 832C264.576 832 64 631.424 64 384s200.576-448 448-448 448 200.576 448 448S759.424 832 512 832z m0-824c-207.659 0-376 168.341-376 376s168.341 376 376 376 376-168.341 376-376-168.341-376-376-376zM476 384a36 36 0 1 1 72 0 36 36 0 1 1-72 0zM344.907 224.77599999999995c-40.717 40.717-65.901 96.967-65.901 159.099s25.184 118.382 65.901 159.099l-0.172 0.172c5.59 5.449 9.066 13.056 9.066 21.479 0 16.569-13.431 30-30 30-9.741 0-18.393-4.646-23.874-11.839-50.064-51.356-80.922-121.525-80.922-198.911 0-78.036 31.375-148.736 82.184-200.204 5.5-6.306 13.587-10.296 22.612-10.296 16.569 0 30 13.431 30 30 0 8.359-3.422 15.917-8.938 21.357l0.044 0.044zM410.828 291.804c-23.382 23.661-37.822 56.178-37.822 92.071 0 35.676 14.268 68.015 37.401 91.639 5.978 5.484 9.728 13.359 9.728 22.111 0 16.569-13.431 30-30 30-8.253 0-15.727-3.334-21.151-8.728l-0.035 0.035c-34.564-34.564-55.943-82.314-55.943-135.057s21.378-100.493 55.943-135.057l0.022 0.022c5.433-5.459 12.953-8.84 21.264-8.84 16.569 0 30 13.431 30 30 0 8.592-3.618 16.335-9.407 21.804zM469.187 352.30600000000004c-7.569 8.343-12.181 19.417-12.181 31.569 0 12.502 4.891 23.855 12.852 32.275 5.894 5.478 9.586 13.294 9.586 21.975 0 16.569-13.431 30-30 30-8.205 0-15.637-3.297-21.053-8.634l-0.045 0.045c-19.363-19.363-31.34-46.113-31.34-75.66s11.976-56.297 31.34-75.66l0.084 0.084c5.384-5.138 12.671-8.299 20.701-8.299 16.569 0 30 13.431 30 30 0 8.856-3.84 16.814-9.944 22.305z m254.885 230.48c-5.48 7.193-14.133 11.839-23.874 11.839-16.569 0-30-13.431-30-30 0-8.423 3.476-16.03 9.066-21.479l-0.172-0.172c40.717-40.717 65.901-96.967 65.901-159.099s-25.184-118.382-65.901-159.099l0.044-0.044c-5.516-5.44-8.938-12.998-8.938-21.357 0-16.569 13.431-30 30-30 9.024 0 17.112 3.99 22.612 10.296 50.809 51.468 82.184 122.168 82.184 200.204 0 77.386-30.858 147.555-80.922 198.911zM655.051 518.932l-0.035-0.035c-5.424 5.393-12.898 8.728-21.151 8.728-16.569 0-30-13.431-30-30 0-8.752 3.75-16.627 9.728-22.111 23.133-23.625 37.401-55.963 37.401-91.639 0-35.893-14.44-68.41-37.822-92.071-5.789-5.469-9.406-13.212-9.406-21.804 0-16.569 13.431-30 30-30 8.311 0 15.831 3.38 21.264 8.84l0.022-0.022c34.564 34.564 55.943 82.314 55.943 135.057s-21.379 100.493-55.944 135.057zM595.654 459.535l-0.045-0.045c-5.416 5.337-12.848 8.634-21.053 8.634-16.569 0-30-13.431-30-30 0-8.681 3.692-16.497 9.586-21.975 7.961-8.42 12.852-19.773 12.852-32.275 0-12.152-4.612-23.226-12.181-31.569-6.104-5.492-9.944-13.45-9.944-22.306 0-16.569 13.431-30 30-30 8.03 0 15.317 3.161 20.701 8.299l0.084-0.084c19.363 19.363 31.34 46.113 31.34 75.66s-11.976 56.298-31.34 75.661z"  horiz-adv-x="1024" />

    
    <glyph glyph-name="param" unicode="&#59195;" d="M417.030022 776.665101c6.782473-1.337461 13.566994-2.663666 20.346397-4.01443 21.070898-4.198625 40.321334-12.58769 58.063417-24.704658 25.592888-17.47807 45.186132-40.134069 58.43897-68.049863 7.979742-16.807804 13.301957-34.570353 14.542205-53.274344 0.694825-10.480702 1.494027-21.047362 0.913812-31.500434-1.00591-18.101263-5.406127-35.567054-12.33084-52.380998-6.680143-16.219403-15.696494-31.075763-27.028586-44.344974-12.267395-14.365172-26.558889-26.479071-42.920532-36.208667-17.288758-10.280134-35.772738-17.280572-55.416124-20.887726-16.504906-3.031033-33.210379-3.059686-49.994648-1.438768-22.330588 2.156106-43.321668 8.541537-62.566987 19.738553-11.06501 6.437619-21.444405 14.273075-31.358195 22.421662-18.182105 14.945387-31.311123 33.948183-41.061185 55.249325-7.334036 16.022928-12.481266 32.757055-13.755282 50.426483-0.730641 10.135848-1.297552 20.340257-0.973164 30.482245 0.599657 18.697851 5.15951 36.603663 12.089339 53.983495 10.069333 25.255197 26.000164 46.367027 46.273907 64.024176 22.446221 19.549242 48.483224 32.318056 78.029144 37.437657 5.335519 0.925069 10.641361 2.022053 15.96153 3.040243l32.746822 0.001023z m-16.365736-224.104057c30.019711-1.182942 54.058197 25.432229 55.420217 51.929719 1.75497 34.145681-26.835182 57.5753-52.373835 58.778708-33.292244 1.568728-56.845683-26.199709-58.532091-51.625797-2.25639-34.002418 27.582195-60.847833 55.485709-59.08263zM616.57473-11.280671999999981c-5.053086 0.681522-10.105149 1.381463-15.161304 2.041496-21.291932 2.77623-41.134863 9.81146-59.835784 20.256346-15.892969 8.877181-29.723975 20.348444-41.895179 33.781385-12.443403 13.732769-22.198581 29.187763-29.614481 46.25958-5.764284 13.271258-9.875928 26.967188-11.913331 41.162491-2.248204 15.664771-2.466168 31.385824-0.458441 47.2747 1.947352 15.409968 5.830799 30.151717 11.666714 44.359301 5.924943 14.428617 13.69593 27.952632 23.780613 39.947827 13.19451 15.69547 27.913746 29.636994 45.905516 39.930431 17.072841 9.768481 34.921347 17.531282 54.399981 20.462031 12.617365 1.899256 25.505907 3.348258 38.21537 2.980891 21.145599-0.60989 41.590234-5.249561 61.217246-13.772678 20.315698-8.820899 38.223556-20.992103 53.552684-36.705994 22.312168-22.871917 37.139875-50.049906 44.110637-81.369215 3.463891-15.564487 5.088902-31.365358 3.973497-47.222511-2.450818-34.847669-14.065344-66.425875-35.512818-94.183056-15.660678-20.267603-35.242665-35.988656-57.998949-47.376007-16.57756-8.29492-34.186613-14.111392-52.893674-15.834641-4.734838-0.435928-9.428743-1.319042-14.142091-1.995447-5.798053 0.00307-11.597129 0.00307-17.396206 0.00307z m64.468291 169.446204c0.190335 30.722722-25.925463 54.992475-53.727669 55.621808-33.131585 0.750083-57.602929-25.423019-57.585533-55.196113 0.01842-31.42471 24.227798-55.924707 55.667857-56.090483 31.368428-0.163729 55.558363 25.611308 55.645345 55.664788zM62.966077 166.77460699999995c2.02717 5.703909 3.466961 11.70867 6.192026 17.057491 8.423857 16.534582 21.838378 26.782993 40.291658 29.999244 3.294023 0.574075 6.664793 0.994654 10.000772 0.996701 94.278223 0.052189 188.555423 0.041956 282.833646 0.041955h7.108908c-10.667967-37.881772-10.816347-75.363432 0.134054-113.586988h-6.67298c-94.618984 0-189.237969-0.100284-283.85593 0.061398-27.943422 0.048095-51.202149 20.50808-55.119365 46.988175-0.057305 0.384763-0.597611 0.697895-0.912789 1.044795v17.397229zM963.475532 602.703047c-1.339508-5.053086-2.411933-10.1952-4.064573-15.142885-6.274914-18.783809-27.690666-36.168758-49.77259-36.117592-95.475492 0.223081-190.952007 0.095167-286.428521 0.095167h-6.526647c10.79588 37.57171 10.858302 74.873268-0.027629 112.563682h5.924942c96.328929 0 192.656835 0.077771 288.985764-0.098237 12.124132-0.022513 22.670326-5.256724 31.81459-13.102413 9.583263-8.222265 15.874549-18.497283 18.619056-30.873148 0.522909-2.356674 0.984421-4.727675 1.474584-7.091512l0.001024-10.233062zM963.475532 153.47162600000001c-1.042749-4.449335-1.657756-9.05319-3.200902-13.3214-7.695263-21.284769-22.422685-35.328623-45.157479-37.531801-19.715017-1.910513-39.70428-1.013073-59.572794-1.325182-4.54348-0.071631-9.089006-0.010233-14.078647-0.010233 4.983501 19.163455 8.388041 37.930891 8.371668 57.120952-0.016373 19.012006-3.489474 37.595246-8.334829 56.466036h10.606569c18.065448 0 36.129872 0.005117 54.19532-0.001023 24.76094-0.008186 44.262086-13.94664 53.541427-36.918841 1.818415-4.502547 2.450818-9.484002 3.63069-14.244422l-0.001023-10.234086zM62.966077 616.006028c2.177596 8.658194 4.842285 17.072841 10.180873 24.460088 10.915607 15.103999 25.459858 23.423479 44.199665 23.588231 21.814842 0.192382 43.632753 0.032746 65.448618 0.019443 0.336668 0 0.672312-0.081864 1.469468-0.185218-4.501524-18.362206-7.736195-36.833907-7.82113-55.825447-0.085958-19.156292 3.282766-37.72009 7.92346-56.526411-21.100574 0-42.037419 0.426719-62.947657-0.135076-16.820084-0.451278-31.072693 4.814656-42.659589 16.721846-8.187473 8.413624-13.722536 18.446118-14.887059 30.462802-0.035816 0.37453-0.592494 0.698918-0.905626 1.045819l-0.001023 16.373923z"  horiz-adv-x="1024" />

    
    <glyph glyph-name="log" unicode="&#59134;" d="M785.066667 605.866667c18.773333 0 34.133333 15.36 34.133333 34.133333V776.533333c0 18.773333-15.36 34.133333-34.133333 34.133334s-34.133333-15.36-34.133334-34.133334v-136.533333c0-18.773333 15.36-34.133333 34.133334-34.133333z m-256 0c18.773333 0 34.133333 15.36 34.133333 34.133333V776.533333c0 18.773333-15.36 34.133333-34.133333 34.133334s-34.133333-15.36-34.133334-34.133334v-136.533333c0-18.773333 15.36-34.133333 34.133334-34.133333z m392.533333 153.6h-68.266667v-128c0-23.893333-18.773333-42.666667-42.666666-42.666667h-51.2c-23.893333 0-42.666667 18.773333-42.666667 42.666667V759.466667h-119.466667v-128c0-23.893333-18.773333-42.666667-42.666666-42.666667h-51.2c-23.893333 0-42.666667 18.773333-42.666667 42.666667V759.466667h-119.466667v-128c0-23.893333-18.773333-42.666667-42.666666-42.666667h-51.2c-23.893333 0-42.666667 18.773333-42.666667 42.666667V759.466667H136.533333c-29.013333 0-51.2-22.186667-51.2-51.2v-716.8c0-29.013333 22.186667-51.2 51.2-51.2h785.066667c29.013333 0 51.2 22.186667 51.2 51.2V708.266667c0 29.013333-22.186667 51.2-51.2 51.2zM204.8 435.2h494.933333c18.773333 0 34.133333-15.36 34.133334-34.133333s-15.36-34.133333-34.133334-34.133334H204.8c-18.773333 0-34.133333 15.36-34.133333 34.133334s15.36 34.133333 34.133333 34.133333z m0-136.533333h290.133333c18.773333 0 34.133333-15.36 34.133334-34.133334s-15.36-34.133333-34.133334-34.133333H204.8c-18.773333 0-34.133333 15.36-34.133333 34.133333s15.36 34.133333 34.133333 34.133334z m648.533333-187.733334H204.8c-18.773333 0-34.133333 15.36-34.133333 34.133334s15.36 34.133333 34.133333 34.133333h648.533333c18.773333 0 34.133333-15.36 34.133334-34.133333s-15.36-34.133333-34.133334-34.133334zM273.066667 605.866667c18.773333 0 34.133333 15.36 34.133333 34.133333V776.533333c0 18.773333-15.36 34.133333-34.133333 34.133334s-34.133333-15.36-34.133334-34.133334v-136.533333c0-18.773333 15.36-34.133333 34.133334-34.133333z"  horiz-adv-x="1024" />

    
    <glyph glyph-name="movie" unicode="&#58891;" d="M416 254.08000000000004a32.128 32.128 0 0 0-32 32v256a32 32 0 0 0 49.792 26.624l192-128a32.192 32.192 0 0 0-0.064-53.248l-192-128a32.384 32.384 0 0 0-17.728-5.376zM448 482.304v-136.384L550.336 414.08 448 482.304zM960 768v-704H64V768h896z m64 64H0v-832h1024V832z m-63.488-125.248h-896v-64h896v64z m0-512h-896v-64h896v64zM256 772.544H192v-128h64v128z m192 0H384v-128h64v128z m192 0H576v-128h64v128z m192 0h-64v-128h64v128z m-576-584.064H192v-183.936h64v183.936z m192 0H384v-183.936h64v183.936z m192 0H576v-183.936h64v183.936z m192 0.896h-64v-184.896h64v184.896z"  horiz-adv-x="1024" />

    
    <glyph glyph-name="fire-control" unicode="&#58947;" d="M752 324V504c33.12 0 60-40.32 60-90S785.12 324 752 324z m-120-300h120a60 60 0 0 0 0-120H272a60 60 0 0 0 0 120h120V324H332V504h60V564a60 60 0 0 0 60 60h120a60 60 0 0 0 60-60v-60h60v-180H632v-300zM512 504a60 60 0 1 1 0-120 60 60 0 0 1 0 120z m-57 285C453.74 793.92 452 798.66 452 804a60 60 0 0 0 120 0c0-5.34-1.74-10.08-3.06-15A119.52 119.52 0 0 0 632 684H392c0 45.54 25.68 84.66 63 105zM212 414C212 463.68 238.88 504 272 504v-180c-33.12 0-60 40.32-60 90z"  horiz-adv-x="1024" />

    
    <glyph glyph-name="event" unicode="&#58973;" d="M1024 896H273.066667a68.266667 68.266667 0 0 1-68.266667-68.266667v-136.533333H68.266667a68.266667 68.266667 0 0 1-68.266667-68.266667v-682.666666a68.266667 68.266667 0 0 1 68.266667-68.266667h955.733333a68.266667 68.266667 0 0 1 68.266667 68.266667V827.733333a68.266667 68.266667 0 0 1-68.266667 68.266667zM204.8-59.733333000000016H68.266667V622.933333h136.533333z m819.2 0H273.066667V827.733333h750.933333zM580.266667 8.53333299999997h68.266666a102.4 102.4 0 0 1 0 204.8h-68.266666a103.082667 103.082667 0 0 1-96.256-68.266666H409.6V349.866667h74.410667A103.082667 103.082667 0 0 1 580.266667 281.6h68.266666a103.082667 103.082667 0 0 1 96.256 68.266667H887.466667V691.2h-142.677334A103.082667 103.082667 0 0 1 648.533333 759.466667h-68.266666a102.4 102.4 0 0 1 0-204.8h68.266666a103.082667 103.082667 0 0 1 96.256 68.266666H819.2v-204.8h-74.410667A103.082667 103.082667 0 0 1 648.533333 486.4h-68.266666a103.082667 103.082667 0 0 1-96.256-68.266667H341.333333v-341.333333h142.677334a103.082667 103.082667 0 0 1 96.256-68.266667z"  horiz-adv-x="1024" />

    
    <glyph glyph-name="position" unicode="&#58919;" d="M945.4 410.2h-53.9c-12.9 189-164.4 340.4-353.3 353.3v42c0 14.4-11.8 26.2-26.2 26.2-14.4 0-26.2-11.8-26.2-26.2v-42c-188.9-12.9-340.4-164.4-353.3-353.3H78.6c-14.4 0-26.2-11.8-26.2-26.2s11.8-26.2 26.2-26.2h53.9c12.9-188.9 164.4-340.4 353.3-353.3v-42c0-14.4 11.8-26.2 26.2-26.2 14.4 0 26.2 11.8 26.2 26.2v42c188.9 12.9 340.4 164.4 353.3 353.3h53.9c14.4 0 26.2 11.8 26.2 26.2s-11.8 26.2-26.2 26.2zM538.2 57.10000000000002V224.89999999999998c0 14.4-11.8 26.2-26.2 26.2-14.4 0-26.2-11.8-26.2-26.2v-167.8c-160 12.7-287.9 140.7-300.7 300.7h156c14.4 0 26.2 11.8 26.2 26.2s-11.8 26.2-26.2 26.2h-156c12.7 160 140.7 287.9 300.7 300.7v-167.8c0-14.4 11.8-26.2 26.2-26.2 14.4 0 26.2 11.8 26.2 26.2V710.9c160-12.7 287.9-140.7 300.7-300.7H683c-14.4 0-26.2-11.8-26.2-26.2s11.8-26.2 26.2-26.2h156c-12.8-160-140.8-288-300.8-300.7z"  horiz-adv-x="1024" />

    
    <glyph glyph-name="detail" unicode="&#58917;" d="M250.600615 357.529132a68.830343 68.830343 0 1 1 137.660686 0 68.830343 68.830343 0 0 1-137.660686 0zM468.186363 357.529132a68.830343 68.830343 0 1 1 137.660686 0 68.830343 68.830343 0 0 1-137.660686 0zM685.772111 357.529132a68.830343 68.830343 0 1 1 137.660686 0 68.830343 68.830343 0 0 1-137.660686 0zM983.444494 582.816554a509.926203 509.926203 0 0 1-109.6546 162.650732A509.926203 509.926203 0 0 1 512.02666 895.299848a509.872345 509.872345 0 0 1-361.817093-149.832562A509.926203 509.926203 0 0 1 0.377005 383.65019299999994a509.872345 509.872345 0 0 1 149.88642-361.817092 509.926203 509.926203 0 0 1 361.763235-149.832562 509.926203 509.926203 0 0 1 361.817092 149.832562 509.926203 509.926203 0 0 1 149.832562 361.817092 508.418183 508.418183 0 0 1-40.23182 199.166361zM926.355164 208.61215300000003a448.258955 448.258955 0 0 0-96.405566-142.992614 448.312813 448.312813 0 0 0-317.976796-131.682463 448.312813 448.312813 0 0 0-318.030654 131.736321 448.258955 448.258955 0 0 0-131.736322 317.976796 448.312813 448.312813 0 0 0 131.736322 318.030654 448.258955 448.258955 0 0 0 318.030654 131.682464 448.258955 448.258955 0 0 0 318.030654-131.736322 448.258955 448.258955 0 0 0 131.682463-317.976796c0-60.751664-11.848729-119.618303-35.330755-175.03804z"  horiz-adv-x="1024" />

    
    <glyph glyph-name="power" unicode="&#59008;" d="M793.6 742.4c-25.6 22.4-57.6 22.4-80 6.4-25.6-16-35.2-41.6-28.8-70.4 0-25.6 19.2-38.4 38.4-51.2C857.6 521.6 896 345.6 816 192c-70.4-134.4-230.4-208-377.6-176C288 48 172.8 185.60000000000002 169.6 339.20000000000005c-3.2 118.4 41.6 214.4 137.6 288 35.2 28.8 41.6 70.4 16 99.2-25.6 32-64 35.2-102.4 6.4C60.8 608-6.4 390.4 57.6 204.79999999999995 121.6 6.399999999999977 304-128 512-128c262.4 0 480 211.2 480 476.8 3.2 163.2-67.2 294.4-198.4 393.6zM489.6 355.20000000000005c48-16 89.6 16 89.6 70.4V819.2C582.4 867.2 553.6 896 512 896c-38.4 0-67.2-28.8-70.4-70.4v-403.2c3.2-35.2 22.4-57.6 48-67.2z"  horiz-adv-x="1024" />

    
    <glyph glyph-name="resource" unicode="&#59033;" d="M506.94144 319.24224000000004a51.54816 51.54816 0 0 0-31.51872 10.58816L25.10848 571.06432a35.38944 35.38944 0 0 0-8.06912 5.9392c-20.15232 19.8656-19.94752 52.38784 0.45056 72.4992 2.64192 2.60096 5.69344 4.77184 9.0112 6.43072L485.39648 883.95776a52.55168 52.55168 0 0 0 31.88736 10.67008c11.1616 0 21.77024-3.46112 30.53568-9.87136l450.17088-210.944c3.62496-1.69984 6.92224-3.9936 9.76896-6.77888a50.5856 50.5856 0 0 0 14.99136-36.82304 51.32288 51.32288 0 0 0-15.4624-35.69664c-2.21184-2.19136-4.7104-4.07552-7.43424-5.59104L539.72992 330.58816a52.5312 52.5312 0 0 0-32.78848-11.34592zM94.86336 612.43392l411.97568-220.71296L929.792 629.18656 517.4272 822.3948800000001 94.86336 612.43392zM503.88992 171.08992a51.77344 51.77344 0 0 0-31.49824 10.56768L22.07744 422.89152C5.03808 432.00512-1.24928 453.0176 7.9872 469.8112s30.53568 23.01952 47.55456 13.88544l448.24576-240.128 458.30144 257.31072c16.83456 9.44128 38.25664 3.64544 47.84128-12.94336s3.70688-37.72416-13.12768-47.16544L536.65792 182.39487999999994a52.89984 52.89984 0 0 0-32.768-11.30496zM503.88992 22.589439999999968a51.77344 51.77344 0 0 0-31.49824 10.56768L22.07744 274.39104a34.34496 34.34496 0 0 0-14.09024 46.8992 35.30752 35.30752 0 0 0 47.55456 13.88544l448.24576-240.128 458.30144 257.29024c16.83456 9.46176 38.25664 3.66592 47.84128-12.94336s3.70688-37.72416-13.12768-47.18592L536.65792 33.89440000000002a52.89984 52.89984 0 0 0-32.768-11.30496zM503.88992-125.91103999999996a51.89632 51.89632 0 0 0-31.49824 10.5472L22.07744 125.87008000000003a34.36544 34.36544 0 0 0-14.09024 46.91968 35.328 35.328 0 0 0 47.55456 13.88544L503.78752-53.452800000000025l458.30144 257.29024c16.83456 9.46176 38.25664 3.66592 47.84128-12.94336s3.70688-37.72416-13.12768-47.18592L536.65792-114.60608000000002a52.89984 52.89984 0 0 0-32.768-11.30496z"  horiz-adv-x="1024" />

    
    <glyph glyph-name="video" unicode="&#59064;" d="M124.26742914 699.13969695h63.85062762v-63.85063369H124.26742914zM124.26742914 507.58779583h63.85062762v-63.8506337H124.26742914zM124.26742914 316.03590078h63.85062762v-63.85063369H124.26742914zM124.26742914 124.48399962999997h63.85062762v-63.85063365H124.26742914zM826.62438162 699.13969695h63.85063367v-63.85063369h-63.85063367zM826.62438162 507.58779583h63.85063367v-63.8506337h-63.85063367zM826.62438162 316.03590078h63.85063367v-63.85063369h-63.85063367zM826.62438162 124.48399962999997h63.85063367v-63.85063365h-63.85063367zM954.32564904 890.69159196H60.41679537a63.85063371 63.85063371 0 0 1-63.85063365-63.85063369v-893.90885362a63.85063371 63.85063371 0 0 1 63.85063365-63.85063367h766.20758625l191.55190106 191.551895v766.20759229a63.85063371 63.85063371 0 0 1-63.85063364 63.85063369z m-830.0582199-957.75948731a63.85063371 63.85063371 0 0 0-63.85063377 63.85063365v766.20758618a63.85063371 63.85063371 0 0 0 63.85063377 63.85063379h766.20758615a63.85063371 63.85063371 0 0 0 63.85063375-63.85063379v-638.50632485h-127.70126742a63.85063371 63.85063371 0 0 1-63.85062767-63.85063365v-127.70126133z m702.35695248 0v127.70126133h127.70126742zM741.70304095 443.73716213a86.19835434 86.19835434 0 0 1-28.09427601 28.73278874l-219.00767008 141.10989862a108.54607484 108.54607484 0 0 1-83.644327 21.70921377 105.99204761 105.99204761 0 0 1-72.78972323-45.33394794 105.99204761 105.99204761 0 0 1-22.34772053-70.23569589v-278.38876233a127.70126746 127.70126746 0 0 1 30.64830329-83.00582013 114.29263017 114.29263017 0 0 1 81.09030569-33.84083734 123.23171963 123.23171963 0 0 1 63.85062772 19.79369941l219.00767011 137.91736438a119.40068474 119.40068474 0 0 1 31.28681004 161.54209871z m-36.39485849-70.23569595a58.1040784 58.1040784 0 0 0-25.5402548-40.22589944l-218.36916335-137.91736433a49.80349574 49.80349574 0 0 0-33.84083123-11.49311072 53.63453062 53.63453062 0 0 0-38.94888573 17.23966594 48.5264821 48.5264821 0 0 0-16.60116531 40.22589947v281.58129025a55.55005102 55.55005102 0 0 0 10.85460385 33.84083736 63.85063371 63.85063371 0 0 0 36.39486466 22.98622746h8.30058253a74.70523754 74.70523754 0 0 0 33.84083123-8.30058267l218.36916335-138.55587123a30.00979636 30.00979636 0 0 0 14.04713806-14.04713798 51.71901006 51.71901006 0 0 0 11.49311674-45.33395411z"  horiz-adv-x="1024" />

    
    <glyph glyph-name="center" unicode="&#58885;" d="M981.333333 426.666667c-12.8 0-21.333333-8.533333-21.333333-21.333334v-85.333333c0-46.933333-38.4-85.333333-85.333333-85.333333H149.333333c-46.933333 0-85.333333 38.4-85.333333 85.333333V746.666667c0 46.933333 38.4 85.333333 85.333333 85.333333h725.333334c46.933333 0 85.333333-38.4 85.333333-85.333333 0-12.8 8.533333-21.333333 21.333333-21.333334s21.333333 8.533333 21.333334 21.333334c0 70.4-57.6 128-128 128H149.333333C78.933333 874.666667 21.333333 817.066667 21.333333 746.666667v-426.666667c0-70.4 57.6-128 128-128h725.333334c70.4 0 128 57.6 128 128v85.333333c0 12.8-8.533333 21.333333-21.333334 21.333334zM981.333333 597.333333c-12.8 0-21.333333-8.533333-21.333333-21.333333v-85.333333c0-12.8 8.533333-21.333333 21.333333-21.333334s21.333333 8.533333 21.333334 21.333334v85.333333c0 12.8-8.533333 21.333333-21.333334 21.333333zM966.4 676.266667c-4.266667-4.266667-6.4-8.533333-6.4-14.933334 0-6.4 2.133333-10.666667 6.4-14.933333 4.266667-4.266667 8.533333-6.4 14.933333-6.4 6.4 0 10.666667 2.133333 14.933334 6.4 0 2.133333 2.133333 2.133333 2.133333 4.266667 0 0 2.133333 2.133333 2.133333 4.266666s0 2.133333 2.133334 4.266667v4.266667c0 6.4-2.133333 10.666667-6.4 14.933333-8.533333 6.4-21.333333 6.4-29.866667-2.133333zM896-64H128c-12.8 0-21.333333-8.533333-21.333333-21.333333s8.533333-21.333333 21.333333-21.333334h768c12.8 0 21.333333 8.533333 21.333333 21.333334s-8.533333 21.333333-21.333333 21.333333zM832 725.333333h-66.133333c-8.533333 36.266667-42.666667 64-83.2 64s-72.533333-27.733333-83.2-64H192c-12.8 0-21.333333-8.533333-21.333333-21.333333s8.533333-21.333333 21.333333-21.333333h407.466667c8.533333-36.266667 42.666667-64 83.2-64s72.533333 27.733333 83.2 64H832c12.8 0 21.333333 8.533333 21.333333 21.333333s-8.533333 21.333333-21.333333 21.333333z m-149.333333-64c-23.466667 0-42.666667 19.2-42.666667 42.666667s19.2 42.666667 42.666667 42.666667 42.666667-19.2 42.666666-42.666667-19.2-42.666667-42.666666-42.666667zM682.666667 42.66666699999996c12.8 0 21.333333 8.533333 21.333333 21.333333s-8.533333 21.333333-21.333333 21.333333H341.333333c-12.8 0-21.333333-8.533333-21.333333-21.333333s8.533333-21.333333 21.333333-21.333333h341.333334zM832 554.666667H424.533333c-8.533333 36.266667-42.666667 64-83.2 64s-72.533333-27.733333-83.2-64H192c-12.8 0-21.333333-8.533333-21.333333-21.333334s8.533333-21.333333 21.333333-21.333333h66.133333c8.533333-36.266667 42.666667-64 83.2-64s72.533333 27.733333 83.2 64H832c12.8 0 21.333333 8.533333 21.333333 21.333333s-8.533333 21.333333-21.333333 21.333334z m-490.666667-64c-23.466667 0-42.666667 19.2-42.666666 42.666666s19.2 42.666667 42.666666 42.666667 42.666667-19.2 42.666667-42.666667-19.2-42.666667-42.666667-42.666666zM832 384h-66.133333c-8.533333 36.266667-42.666667 64-83.2 64s-72.533333-27.733333-83.2-64H192c-12.8 0-21.333333-8.533333-21.333333-21.333333s8.533333-21.333333 21.333333-21.333334h407.466667c8.533333-36.266667 42.666667-64 83.2-64s72.533333 27.733333 83.2 64H832c12.8 0 21.333333 8.533333 21.333333 21.333334s-8.533333 21.333333-21.333333 21.333333z m-149.333333-64c-23.466667 0-42.666667 19.2-42.666667 42.666667s19.2 42.666667 42.666667 42.666666 42.666667-19.2 42.666666-42.666666-19.2-42.666667-42.666666-42.666667z"  horiz-adv-x="1024" />

    
    <glyph glyph-name="permission" unicode="&#58926;" d="M790.4-106.88l-43.52 69.12a207.36 207.36 0 0 0-39.04 0l-44.16-68.48L576-70.39999999999998l19.2 79.36a201.6 201.6 0 0 0-27.52 27.52l-79.36-17.28-35.84 85.76 69.12 42.88a216.32 216.32 0 0 0 0 38.4l-68.48 44.16 36.48 86.4 78.72-18.56a198.4 198.4 0 0 0 28.16 27.52L576 405.12l87.04 34.56 46.08-68.48a211.2 211.2 0 0 0 38.4 0l42.88 68.48 87.04-35.84-17.92-80a192 192 0 0 0 27.52-27.52l79.36 19.2 35.84-86.4-69.76-43.52a210.56 210.56 0 0 0 0-38.4l69.76-42.88-37.12-86.4-80 17.92a192 192 0 0 0-26.88-26.88l18.56-79.36zM763.52 0l40.32-64 34.56 14.08-16.64 72.96 8.96 6.4a162.56 162.56 0 0 1 35.2 34.56l6.4 8.96 73.6-16.64 14.08 33.92-64 37.76v10.88a179.2 179.2 0 0 1 0 51.2v10.88l64 39.68-14.08 33.28-72.96-17.92-6.4 9.6a156.8 156.8 0 0 1-34.56 38.4l-8.96 6.4L838.4 384l-34.56 14.08-35.84-63.36h-10.88a177.92 177.92 0 0 1-51.2 0h-10.88l-39.68 64-37.12-14.72 16-72.96-9.6-6.4a164.48 164.48 0 0 1-36.48-35.2l-6.4-8.96L512 277.76l-14.72-33.92 64-39.68v-10.88a182.4 182.4 0 0 1 0-51.2v-10.88l-64-39.68 10.88-33.92 72.96 16 7.04-9.6a168.32 168.32 0 0 1 35.84-35.84l8.96-6.4-17.28-71.68 34.56-14.08 40.96 64h12.8a172.8 172.8 0 0 1 51.2 0z m-622.72-12.16H59.52a21.76 21.76 0 0 0-19.2 18.56l-4.48 16.64c0 11.52-5.76 23.68-6.4 24.96l-7.04 33.28a99.2 99.2 0 0 0 14.08 64l238.08 340.48a474.24 474.24 0 0 0-33.28 102.4 211.84 211.84 0 0 0 7.04 102.4 228.48 228.48 0 0 0 50.56 84.48A320 320 0 0 0 478.72 870.4a263.68 263.68 0 0 0 305.92-214.4 334.08 334.08 0 0 0-16.64-179.2l-4.48-10.88h-23.68a304 304 0 0 1-119.04-24.32 304 304 0 0 1-96-64 440.96 440.96 0 0 1-31.36-37.12l-5.12-6.4-113.92-176.64-84.48 7.04-92.16-142.08a76.16 76.16 0 0 0-56.32-35.84z m-70.4 34.56h69.12a42.88 42.88 0 0 1 29.44 19.2L266.88 192l8.32 8.32 81.92-8.32 112 175.36c8.96 11.52 18.56 23.04 28.8 33.92a340.48 340.48 0 0 0 238.72 98.56 304 304 0 0 1 10.88 149.76A229.76 229.76 0 0 1 484.48 837.12c-119.04-21.12-232.96-113.28-209.92-242.56a433.92 433.92 0 0 1 34.56-102.4l4.48-8.96L64 128a64 64 0 0 1-8.96-39.04l8.96-34.56c0-8.32 3.84-23.68 6.4-33.28z m656.64 37.76a110.08 110.08 0 0 0-40.96 3.84 106.88 106.88 0 0 0-58.24 64A107.52 107.52 0 0 0 768 265.6a108.16 108.16 0 0 0 58.24-58.24 105.6 105.6 0 0 0 0-82.56 107.52 107.52 0 0 0-58.88-57.6 109.44 109.44 0 0 0-40.32-8.32z m-28.16 39.04a75.52 75.52 0 0 1 97.28 39.68 74.24 74.24 0 0 1-97.28 96.64 71.68 71.68 0 0 1-39.68-39.68 72.32 72.32 0 0 1 0-56.32 73.6 73.6 0 0 1 39.68-40.96z m-582.4-9.6l-27.52 19.84L326.4 440.32l27.52-19.2z m492.16 451.2a150.4 150.4 0 0 0-78.72 38.4L512 592l-18.56 12.16a128 128 0 0 0-64 69.76 70.4 70.4 0 0 0 15.36 53.76 133.76 133.76 0 0 0 86.4 55.04 131.2 131.2 0 0 0 99.84-21.76 135.04 135.04 0 0 0 54.4-87.04A132.48 132.48 0 0 0 662.4 576a69.12 69.12 0 0 0-44.8-32.64h-8.96zM531.2 619.52l18.56-12.8a113.92 113.92 0 0 1 64-31.36 38.4 38.4 0 0 1 22.4 18.56 101.12 101.12 0 0 1-24.32 139.52 97.92 97.92 0 0 1-74.24 16 100.48 100.48 0 0 1-64-40.96 39.68 39.68 0 0 1-9.6-28.16 112.64 112.64 0 0 1 48-48z"  horiz-adv-x="1024" />

    
    <glyph glyph-name="arrow-left" unicode="&#58925;" d="M439.312 668.014l-257.492-257.492c-20.11-20.11-20.11-52.709 0-72.819l257.492-257.492c20.11-20.11 52.709-20.11 72.819 0s20.11 52.709 0 72.819l-169.585 169.585h493.664c28.453 0 51.499 23.046 51.499 51.499s-23.046 51.499-51.499 51.499h-493.664l169.585 169.585c10.043 10.042 15.089 23.226 15.089 36.41s-5.021 26.367-15.089 36.41c-20.11 20.11-52.709 20.11-72.819 0z"  horiz-adv-x="1000" />

    
    <glyph glyph-name="arrow-right" unicode="&#58928;" d="M584.68774868 99.98631869999997l257.49222726 257.49222726c20.11011686 20.11011686 20.11011686 52.70915368 0 72.81927054l-257.49222726 257.49222726c-20.11011686 20.11011686-52.70915368 20.11011686-72.81927054 0s-20.11011686-52.70915368 0-72.81927054l169.58471222-169.58471222-493.66377085 0c-28.45256266 0-51.49858687-23.04602421-51.49929398-51.49929399s23.04602421-51.49858687 51.49929398-51.49929398l493.66377085 0-169.58471222-169.58471222c-10.04303761-10.0416234-15.0889516-23.22633644-15.08895161-36.40963527s5.02116525-26.36730476 15.08895161-36.40963527c20.11011686-20.11011686 52.70915368-20.11011686 72.81927054 0z"  horiz-adv-x="1000" />

    
    <glyph glyph-name="arrow-down" unicode="&#58935;" d="M227.986 311.312l257.492-257.492c20.11-20.11 52.709-20.11 72.819 0l257.492 257.492c20.11 20.11 20.11 52.709 0 72.819s-52.709 20.11-72.819 0l-169.585-169.585v493.664c0 28.453-23.046 51.499-51.499 51.499s-51.499-23.046-51.499-51.499v-493.664l-169.585 169.585c-10.042 10.043-23.226 15.089-36.41 15.089s-26.367-5.021-36.41-15.089c-20.11-20.11-20.11-52.709 0-72.819z"  horiz-adv-x="1000" />

    
    <glyph glyph-name="arrow-up" unicode="&#58936;" d="M796.014 483.353l-257.492 257.492c-20.11 20.11-52.709 20.11-72.819 0l-257.492-257.492c-20.11-20.11-20.11-52.709 0-72.819s52.709-20.11 72.819 0l169.585 169.585v-493.664c0-28.453 23.046-51.499 51.499-51.499s51.499 23.046 51.499 51.499v493.664l169.585-169.585c10.042-10.043 23.226-15.089 36.41-15.089s26.367 5.021 36.41 15.089c20.11 20.11 20.11 52.709 0 72.819z"  horiz-adv-x="1000" />

    
    <glyph glyph-name="screen-wall" unicode="&#58924;" d="M999.685 96H29.02V776.535h966.4V96h4.265zM86.62 153.60000000000002h849.065V718.935H86.62V153.60000000000002z m920.315-162.13H17.07c-8.535 0-17.065 12.8-17.065 29.86 0 14.94 6.4 27.74 17.065 27.74h989.865c8.54 0 17.07-12.8 17.07-27.74 0-17.06-6.4-29.86-17.07-29.86zM581.555 275.20000000000005c-2.14 0-25.6 21.33-25.6 23.47L342.62 448 178.355 294.4c-4.265-2.13-8.535 61.87-10.665 66.13-2.135 2.14-2.135 6.4 2.135 10.67L338.36 529.065c2.135 2.135 6.4 2.135 10.665 0L583.685 358.4l260.27 206.935c4.26 2.135 8.53-19.2 10.66-23.465 2.14-4.27 23.47-29.87 21.34-34.135L609.285 298.66999999999996c-2.13-2.14-25.6-23.47-27.73-23.47z m-234.67 160c-27.735 0-49.065 23.465-49.065 49.065 0 27.735 23.465 49.065 49.065 49.065s49.065-23.465 49.065-49.065-21.33-49.065-49.065-49.065zM178.35 292.27c-25.6 0-49.065 21.33-49.065 49.06 0 27.74 21.335 49.07 49.065 49.07 27.735 0 49.065-21.33 49.065-49.07 0.005-27.73-23.465-49.06-49.065-49.06z m405.335-23.47c-25.6 0-49.07 21.33-49.07 49.07 0 27.73 21.34 49.06 49.07 49.06s49.07-21.33 49.07-49.06c0-27.74-23.47-49.07-49.07-49.07z m266.67 213.335c-27.74 0-49.07 21.335-49.07 49.065s21.33 49.065 49.07 49.065c27.73 0 49.06-21.335 49.06-49.065s-21.33-49.065-49.06-49.065z"  horiz-adv-x="1024" />

    
    <glyph glyph-name="delete" unicode="&#59099;" d="M896 691.2h-204.8V719.36C691.2 760.3199999999999 657.92 793.6 614.4 793.6h-204.8c-43.52 0-76.8-33.28-76.8-74.24V691.2H128v-51.2h81.92v-2.56l43.52-614.4c2.56-25.6 23.04-48.64 51.2-48.64h417.28c25.6 0 48.64 20.48 51.2 48.64l43.52 614.4V640H896V691.2zM384 719.36c0 12.8 10.24 23.04 25.6 23.04h204.8c15.36 0 25.6-10.24 25.6-23.04V691.2H384V719.36zM719.36 25.600000000000023H302.08l-43.52 614.4H765.44l-46.08-614.4zM486.4 486.4h51.2v-409.6h-51.2zM358.4 486.4l25.6-409.6h51.2l-25.6 409.6zM588.8 76.79999999999995h51.2l25.6 409.6h-51.2z"  horiz-adv-x="1024" />

    
    <glyph glyph-name="base" unicode="&#58927;" d="M91.79798 804.20202v-374.949495h374.949495V804.20202H91.79798z m329.696969-329.696969H137.050505V758.9494950000001h284.444444v-284.444444zM557.252525 429.252525h374.949495V804.20202H557.252525v-374.949495z m329.69697 329.69697v-284.444444H602.505051V758.9494950000001h284.444444zM557.252525 338.747475v-374.949495h374.949495V338.747475H557.252525z m329.69697-329.69697H602.505051V293.494949h284.444444v-284.444444zM91.79798 338.747475v-374.949495h374.949495V338.747475H91.79798z m329.696969-329.69697H137.050505V293.494949h284.444444v-284.444444z"  horiz-adv-x="1024" />

    
    <glyph glyph-name="box-select" unicode="&#59281;" d="M951.5 580.8v240h-240v-95h-399v95h-240v-240h95v-393.6h-95v-240h240v95h399v-95h240v240h-95v393.6h95zM761.5 770.8h140v-140h-140v140zM122.5 630.8v140h140v-140h-140zM262.5-2.8h-140v140h140v-140zM901.5 137.2v-140h-140v140h140zM806.5 187.2h-95v-95h-399v95h-95v393.6h95v95h399v-95h95v-393.6z"  horiz-adv-x="1024" />

    
    <glyph glyph-name="synch" unicode="&#59119;" d="M447.00447984 852.68236262l-0.91135494-0.12427568a39.22968779 39.22968779 0 0 1-8.78214764-0.37282703c-3.23116752-0.53852791-6.29663415-1.44988286-9.48637646-2.07126122l-2.73406482-0.62137838A449.04943565 449.04943565 0 0 1 63.5726001 408.10685122c0-215.99112155 153.77043405-402.11465609 365.5776079-442.54567537a37.98693104 37.98693104 0 0 1 43.82788774 46.23055075c-2.98261618 14.45740341-15.24448269 25.02083571-29.74331134 27.75490055-176.26433106 33.76155813-304.26827536 188.7333237-304.26827536 368.6016493 0 52.81716148 10.97768453 103.27308515 30.82036718 149.17223412 7.08371342 16.36296375 17.64714572 14.08457639 23.81950419 2.15411168 5.13672786-9.98347915 23.73665375-49.95882098 37.11700132-76.55381523 8.28504494-16.48723943 15.86586107-22.03821954 23.23955105-22.03821953 9.65207735 0 17.19146825 9.03069899 21.16828982 24.15090599 56.25545513 213.54703328 191.50881375 296.72888446 192.13019212 297.14313671a37.61410402 37.61410402 0 1 1-20.25693488 70.50573243zM587.47741677-35.06020251999996l0.91135495 0.12427567c2.8583405-0.1657009 5.79953147-0.12427568 8.74072242 0.37282702 3.23116752 0.53852791 6.29663415 1.44988286 9.48637644 2.07126124l2.73406484 0.57995315a449.04943565 449.04943565 0 0 1 361.51793587 441.38576907c0 215.99112155-153.77043405 402.11465609-365.57760791 442.54567539a37.98693104 37.98693104 0 0 1-43.82788772-46.23055077c2.98261618-14.45740341 15.24448269-25.02083571 29.74331133-27.75490053 176.34718151-33.67870768 304.35112581-188.69189847 304.35112581-368.56022409a375.10540958 375.10540958 0 0 0-30.82036716-149.1722341c-7.08371342-16.36296375-17.64714572-14.08457639-23.81950421-2.15411168-5.13672786 9.98347915-23.73665375 49.95882098-37.11700132 76.55381522-8.28504494 16.48723943-15.86586107 22.03821954-23.23955104 22.03821954-9.65207735 0-17.19146825-9.03069899-21.16828983-24.15090599-56.25545513-213.54703328-191.50881375-296.72888446-192.13019212-297.14313671a37.69695447 37.69695447 0 0 1-17.89569707-43.28935981 37.53125357 37.53125357 0 0 1 38.11120672-27.21637262z"  horiz-adv-x="1024" />

    
    <glyph glyph-name="message" unicode="&#58890;" d="M533.40154344 535.54193302a64.28930531 64.28930531 0 1 1 0.0423375-128.49393563 64.28930531 64.28930531 0 0 1-0.0423375 128.49393563z m-214.20595313 0a64.28930531 64.28930531 0 1 1 0.04233657-128.57861063 64.28930531 64.28930531 0 0 1-0.04233657 128.57861063zM897.56648281 835.43873583H126.41234844A85.66968 85.66968 0 0 1 40.74266844 749.7690558300001V235.66629895000005a85.66968 85.66968 0 0 1 85.66968-85.66968h214.20595406v-214.20595406l285.60793781 214.20595406h271.31907375a85.7120175 85.7120175 0 0 1 85.69084875 85.66968V749.74788708a85.66968 85.66968 0 0 1-85.66968 85.69084875z m42.84542438-556.94818125a85.7120175 85.7120175 0 0 0-85.69084875-85.69084875H611.93737625L383.46372687 21.439177080000036v171.36052875H169.25777281a85.69084875 85.69084875 0 0 0-85.66968 85.69084875V706.9024627a85.66968 85.66968 0 0 0 85.66968 85.66968001h685.46328563a85.73318625 85.73318625 0 0 0 85.69084875-85.66968v-428.41190813z m-192.80440969 257.05137844a64.28930531 64.28930531 0 1 1 0.06350625-128.55744188 64.28930531 64.28930531 0 0 1-0.06350625 128.55744188z"  horiz-adv-x="1024" />

    
    <glyph glyph-name="favorite" unicode="&#58893;" d="M512 896c-27.733333 0-53.333333-14.933333-66.133333-42.666667l-96-206.933333c-12.8-25.6-36.266667-44.8-64-49.066667L64 565.333333c-59.733333-10.666667-85.333333-83.2-42.666667-125.866666l166.4-170.666667c19.2-19.2 27.733333-46.933333 23.466667-72.533333L170.666667-40.53333299999997c-6.4-49.066667 29.866667-87.466667 72.533333-87.466667 12.8 0 23.466667 2.133333 36.266667 8.533333l196.266666 108.8c10.666667 6.4 23.466667 8.533333 36.266667 8.533334 12.8 0 25.6-2.133333 36.266667-8.533334l196.266666-108.8c10.666667-6.4 23.466667-8.533333 36.266667-8.533333 42.666667 0 81.066667 38.4 72.533333 87.466667l-38.4 236.8c-4.266667 25.6 4.266667 53.333333 23.466667 72.533333l166.4 170.666667c42.666667 42.666667 17.066667 115.2-42.666667 125.866666L740.266667 597.333333c-27.733333 4.266667-53.333333 23.466667-64 49.066667L578.133333 853.333333C565.333333 881.066667 539.733333 896 512 896z"  horiz-adv-x="1025" />

    
    <glyph glyph-name="trail" unicode="&#58909;" d="M889.632 555.008c8.992-13.408 18.208-26.688 27.264-40.16l1.088-0.544c10.88 17.312 21.6 34.624 32.448 51.968 16.768 25.248 35.2 44.928 45.152 78.112 19.328 64.128-26.528 111.648-87.168 110.56l-12.896-2.208c-14.56-4.256-29.472-13.44-37.984-23.968-6.976-8.64-13.952-17.888-18.4-29.056-11.424-28.384-2.56-61.184 9.6-80.928 13.6-21.216 27.232-42.592 40.896-63.776z m-12.96 125.664c6.08 19.36 19.04 23.232 37.408 30.784 58.048 0.864 59.2-81.312 5.568-89.376-27.264-4.224-51.808 30.4-42.976 58.592zM271.424 211.74400000000003c33.728 47.2 65.6 84.384 85.504 147.392 44.224 140.768-45.504 256.256-183.104 253.92-10.72-4.256-26.72-2.784-37.408-6.08-32.064-9.984-62.656-28.928-81.44-52.544-16.416-20.448-31.328-40.704-41.824-67.616-24.512-63.008-6.656-129.504 20.64-174.08a2745.216 2745.216 0 0 1 98.208-151.264c18.24-26.944 36.48-54.016 54.72-80.896l1.664-1.12c11.392 18.432 22.656 36.864 34.08 55.296 16.192 25.952 31.296 52.32 48.96 76.992z m-174.624 236.064a98.88 98.88 0 0 0 57.472 62.432c8.48 3.488 18.976 2.592 28.576 6.08 63.584 0.576 117.568-64.128 90.848-132.672-13.056-33.888-38.528-57.664-79.232-64.096-62.304-10.176-117.184 65.76-97.664 128.256z m840.736-189.248l-140.256 91.552c-16 11.072-32.064 21.952-48.032 32.992-31.744 17.312-63.264 34.624-94.944 51.968-16.928 9.952-36.832 18.24-50.272 31.872l-1.12 0.544c63.232 13.12 129.184 14.016 195.488 25.088 34.048 3.872 68.16 7.712 102.272 11.776v0.576c-5.184 7.008-20.096 27.104-27.296 30.752l-25.664-2.176c-30.88-1.888-61.696-3.712-92.672-5.536-24.128-3.712-48.8-0.576-74.24-4.448-71.616-6.784-143.328-13.28-215.008-19.904 32.416-24.864 64.864-49.92 97.088-74.784 34.656-23.008 72.032-41.28 105.568-65.248 42.752-33.376 85.696-66.688 128.448-99.84l1.12-1.632c-103.2-6.496-206.176-13.12-309.376-19.584l-62.464-2.784c-25.408-3.84-48.992-4.928-72.576-9.504l-34.08-4.992a79071.968 79071.968 0 0 1-100.96-170.24l-1.12-1.664c114.4 25.248 232.704 44.224 348.96 69.792 62.848 11.264 125.888 22.336 188.672 33.568 89.184 15.296 178.336 30.592 267.36 45.664v0.608c-28.352 18.336-56.544 36.96-84.896 55.584z"  horiz-adv-x="1024" />

    
    <glyph glyph-name="organization" unicode="&#58940;" d="M642.465374 843.788319c6.510503 0 19.531509-6.510503 19.531509-19.563423v-169.624136c0-6.542417-6.478589-19.563423-19.531509-19.563423h-254.45216c-6.510503 6.510503-13.05292 13.05292-13.05292 26.073926V830.735399c0 6.574331 6.542417 19.563423 19.595338 19.563423h247.909742v-6.510503z m0 52.211681h-254.45216c-39.158761 0-65.232687-32.584429-65.232687-65.264601v-169.592221c0-32.584429 26.073926-65.264601 65.232687-65.264602h254.45216c39.126847 0 65.200773 32.680172 65.200773 65.264602V830.735399c0 32.648258-26.105841 65.264601-65.200773 65.264601M224.931497 80.55949599999997v-163.17746H61.817864v163.17746h163.113633z m19.595337 52.179767H48.764944c-19.563423 0-32.584429-12.989092-32.584429-32.584429v-195.76189c0-19.595338 13.05292-32.648258 32.584429-32.648258h195.729976c19.563423 0 32.584429 13.05292 32.584429 32.648258V100.15483400000005c0.031914 19.595338-19.563423 32.584429-32.552515 32.584429m345.663031-52.179767v-163.17746h-163.049804v163.17746h163.049804z m13.116748 52.179767h-195.729975c-19.563423 0-32.584429-12.989092-32.58443-32.584429v-195.76189c0-19.595338 13.05292-32.648258 32.58443-32.648258h195.729975c19.563423 0 32.584429 13.05292 32.58443 32.648258V100.15483400000005c0.031914 19.595338-12.989092 32.584429-32.58443 32.584429m358.811694-52.179767v-163.17746h-163.081718v163.17746h163.081718z m13.084835 52.179767h-195.793805c-19.563423 0-32.552515-12.989092-32.552515-32.584429v-195.76189c0-19.595338 12.957178-32.648258 32.552515-32.648258h195.793805c19.531509 0 32.584429 13.05292 32.584429 32.648258V100.15483400000005c0 19.595338-13.05292 32.584429-32.584429 32.584429m-469.777473 417.438135c-13.05292 0-19.531509-6.446675-19.53151-19.563423v-326.163436c0-12.989092 6.478589-19.531509 19.53151-19.531509s19.563423 6.542417 19.563423 19.531509v326.163436c6.542417 13.116749-6.510503 19.563423-19.563423 19.563423M857.726859 439.339276H140.1673c-13.084835 0-19.595338-13.021006-19.595337-19.563424 0-6.606246 6.510503-26.169669 19.595337-26.169669h717.559559c13.021006 0 19.531509 13.05292 19.531509 19.563424 0 6.606246-6.510503 26.169669-19.531509 26.169669zM140.1673 439.339276c-13.084835 0-19.595338-13.021006-19.595337-19.563424v-182.740883c0-13.05292 13.05292-19.531509 19.595337-19.53151 6.478589 0 19.563423 13.05292 19.563424 19.53151v176.134638c-0.031914 13.148663-6.574331 26.169669-19.563424 26.169669zM857.726859 439.339276c-13.05292 0-19.563423-13.021006-19.563423-19.563424v-182.740883c0-13.05292 13.05292-19.531509 19.563423-19.53151s19.531509 13.05292 19.531509 19.53151v176.134638c0 13.148663-6.510503 26.169669-19.531509 26.169669z"  horiz-adv-x="1024" />

    
    <glyph glyph-name="notice" unicode="&#59194;" d="M987.52 200.96000000000004h-110.08v256a364.8 364.8 0 0 1-293.76 358.4v7.68a72.96 72.96 0 0 1-145.92 0v-7.68a364.8 364.8 0 0 1-293.76-358.4v-256H36.48a36.48 36.48 0 0 1-36.48-36.48 37.12 37.12 0 0 1 36.48-36.48h951.04a37.12 37.12 0 0 1 36.48 36.48 36.48 36.48 0 0 1-36.48 36.48z m-768 0v256a292.48 292.48 0 0 0 584.96 0v-259.2z m292.48-256a109.44 109.44 0 0 0-109.44 110.08H328.96a183.04 183.04 0 0 1 366.08 0H621.44A109.44 109.44 0 0 0 512-55.039999999999964z m0 0"  horiz-adv-x="1024" />

    
    <glyph glyph-name="enabled" unicode="&#58881;" d="M1022.976 740.864c0 85.504-69.632 155.136-155.136 155.136H159.232C73.728 896 4.096 826.3679999999999 4.096 740.864v-708.608c0-85.504 69.632-155.136 155.136-155.136h708.608c85.504 0 155.136 69.632 155.136 155.136V740.864z m-78.336-691.2c0-51.712-41.984-94.208-94.208-94.208H176.64c-51.712 0-94.208 41.984-94.208 94.208V723.456c0 22.528 8.192 43.52 21.504 59.904 0.512 1.024 1.536 1.536 2.048 2.048 3.072 3.584 6.656 7.168 10.752 10.752 16.384 13.312 36.864 21.504 59.904 21.504h674.304c51.712 0 94.208-41.984 94.208-94.208v-673.792zM356.864 94.20799999999997c-12.288 0-24.064 3.072-35.328 9.216-22.528 12.8-36.352 36.864-36.352 62.464V607.232c0 25.6 13.824 49.664 36.352 62.464 22.528 12.8 50.176 12.288 72.192-1.024l365.568-220.672c21.504-13.312 34.816-35.84 34.816-61.44 0-25.088-12.8-48.128-34.816-61.44L394.24 104.44799999999998c-11.264-6.656-24.576-10.24-37.376-10.24z m0 513.024v-441.344l365.568 220.672-365.568 220.672z"  horiz-adv-x="1024" />

    
    <glyph glyph-name="refresh" unicode="&#59241;" d="M950.4 278.4c-6.4 6.4-12.8 9.6-22.4 9.6h-224c-19.2 0-32-12.8-32-32s12.8-32 32-32h153.6l-80-80c-70.4-70.4-166.4-112-268.8-112-156.8 0-294.4 92.8-352 236.8-6.4 16-25.6 25.6-41.6 16-16-9.6-25.6-25.6-16-41.6 67.2-166.4 230.4-275.2 409.6-275.2 121.6 0 233.6 48 316.8 131.2l70.4 73.6v-140.8c0-19.2 12.8-32 32-32s32 12.8 32 32v224c0 9.6-3.2 16-9.6 22.4zM320 480c19.2 0 32 12.8 32 32s-12.8 32-32 32h-153.6l80 80c70.4 70.4 166.4 112 268.8 112 156.8 0 294.4-92.8 352-236.8 6.4-16 25.6-25.6 41.6-16 16 6.4 25.6 25.6 16 41.6-67.2 166.4-227.2 275.2-409.6 275.2-121.6 0-233.6-48-316.8-131.2l-70.4-73.6v140.8c0 19.2-12.8 32-32 32s-32-12.8-32-32v-224c0-9.6 3.2-16 9.6-22.4 6.4-6.4 12.8-9.6 22.4-9.6h224z"  horiz-adv-x="1024" />

    
    <glyph glyph-name="resource-data" unicode="&#59038;" d="M672 768h64v-64h-64zM800 768h64v-64h-64zM544 768h64v-64H544zM224 0h64v128h64V320H288V512H224v-192H160v-192h64z m0 256h64v-64H224zM736 0h64v128h64V320h-64V512h-64v-192h-64v-192h64z m0 256h64v-64h-64zM480 0h64v192h64V384H544V512H480v-128H416v-192h64z m0 320h64v-64H480zM928 896H96a64 64 0 0 1-64-64v-896a64 64 0 0 1 64-64h832a64 64 0 0 1 64 64V832a64 64 0 0 1-64 64z m0-896a64 64 0 0 0-64-64H160a64 64 0 0 0-64 64V576h832z m0 640H96V768a64 64 0 0 0 64 64h704a64 64 0 0 0 64-64z"  horiz-adv-x="1024" />

    
    <glyph glyph-name="subsystem" unicode="&#58889;" d="M853.333333 204.79999999999995V341.33333300000004C853.333333 409.6 793.6 469.333333 725.333333 469.333333h-170.666666V563.2C631.466667 580.266667 682.666667 648.533333 682.666667 725.333333c0 93.866667-76.8 170.666667-170.666667 170.666667S341.333333 819.2 341.333333 725.333333c0-76.8 51.2-145.066667 128-162.133333V469.333333h-170.666666C230.4 469.333333 170.666667 409.6 170.666667 341.33333300000004v-136.533333C93.866667 187.73333300000002 42.666667 119.46666700000003 42.666667 42.66666699999996c0-93.866667 76.8-170.666667 170.666666-170.666667s170.666667 76.8 170.666667 170.666667c0 76.8-51.2 145.066667-128 162.133333V341.33333300000004c0 25.6 17.066667 42.666667 42.666667 42.666667h426.666666c25.6 0 42.666667-17.066667 42.666667-42.666667v-136.533333c-76.8-17.066667-128-85.333333-128-162.133333 0-93.866667 76.8-170.666667 170.666667-170.666667s170.666667 76.8 170.666666 170.666667c0 76.8-51.2 145.066667-128 162.133333zM298.666667 42.66666699999996c0-51.2-34.133333-85.333333-85.333334-85.333334s-85.333333 34.133333-85.333333 85.333334 34.133333 85.333333 85.333333 85.333333 85.333333-34.133333 85.333334-85.333333zM512 640c-51.2 0-85.333333 34.133333-85.333333 85.333333s34.133333 85.333333 85.333333 85.333334 85.333333-34.133333 85.333333-85.333334-34.133333-85.333333-85.333333-85.333333z m298.666667-682.666667c-51.2 0-85.333333 34.133333-85.333334 85.333334s34.133333 85.333333 85.333334 85.333333 85.333333-34.133333 85.333333-85.333333-34.133333-85.333333-85.333333-85.333334z"  horiz-adv-x="1024" />

    
    <glyph glyph-name="alarm" unicode="&#59233;" d="M600.02315001 227.01383999999996a351.815517 351.815517 0 1 1-304.48033801 0A415.78197401 415.78197401 0 0 1 32.00100601-128h63.96645799a351.815517 351.815517 0 0 0 703.631033 0h63.966458a415.78197401 415.78197401 0 0 1-263.54180499 355.01384zM159.933921 543.6478050000001a287.849059 287.849059 0 1 0 287.84906-287.84905899 287.209395 287.209395 0 0 0-287.84906 287.84905899zM831.58172599 383.73166100000003a31.983229 31.983229 0 0 1-31.98322899-31.983229v-127.932915a31.983229 31.983229 0 0 1 63.966458 0v127.932915a31.983229 31.983229 0 0 1-31.98322899 31.983229zM959.514641 511.664576a31.983229 31.983229 0 0 1-31.983228-31.983229v-319.832288a31.983229 31.983229 0 0 1 63.96645701 0v319.832288a31.983229 31.983229 0 0 1-31.98322901 31.983229z"  horiz-adv-x="1024" />

    
    <glyph glyph-name="enlarge" unicode="&#59150;" d="M896.00000001 76.79999999999995L896.00000001 691.2C896 747.52 849.91999999 793.6 793.6 793.6l-614.39999999 0c-56.32000001 0-102.4-46.08-102.40000001-102.4l0-614.4c0-56.32000001 46.08-102.4 102.40000001-102.4L793.6-25.600000000000023c56.32000001 0 102.4 46.08 102.40000001 102.4z m-716.80000001-51.2c-28.16 0-51.2 23.04-51.20000001 51.2L127.99999999 691.2c0 28.16 23.04 51.2 51.20000001 51.2L793.6 742.4c28.16 0 51.2-23.04 51.2-51.2l0-614.4c0-28.16-23.04-51.2-51.2-51.2l-614.4 0z m51.2 409.6l0 168.96 174.08-174.08 35.84 35.84-174.08 174.08L435.2 640c15.36 0 25.6 10.24 25.6 25.6s-10.24 25.6-25.6 25.60000001l-230.4-1e-8c-7.68 0-12.8-2.56-17.92-7.68-5.12-5.12-7.68-12.8-7.68-17.92l0-230.4c0-15.36 10.24-25.6 25.6-25.6 12.8 0 25.6 10.24 25.6 25.6zM793.6 102.39999999999998l0 230.4c0 15.36-10.24 25.6-25.6 25.6s-25.6-10.24-25.6-25.6l0-168.96-174.08 174.08-35.84000001-35.84 174.08000001-174.08L537.6 128c-15.36 0-25.6-10.24-25.6-25.6s10.24-25.6 25.6-25.6l230.39999999 0c7.68 0 12.8 2.56 17.92000001 7.68 5.12 5.12 7.68 10.24 7.68 17.92z"  horiz-adv-x="1024" />

    
    <glyph glyph-name="narrow" unicode="&#59151;" d="M460.8 358.4H230.4c-15.36 0-25.6-10.24-25.6-25.6s10.24-25.6 25.6-25.6h168.96l-174.08-174.08 35.84-35.84 174.08 174.08V102.39999999999998c0-15.36 10.24-25.6 25.6-25.6s25.6 10.24 25.6 25.6v230.4c0 7.68-2.56 12.8-7.68 17.92-5.12 5.12-10.24 7.68-17.92 7.68z m332.8 102.4h-168.96l174.08 174.08-35.84 35.84-174.08-174.08V665.6c0 15.36-10.24 25.6-25.6 25.6s-25.6-10.24-25.6-25.6v-230.4c0-7.68 2.56-12.8 7.68-17.92 5.12-5.12 10.24-7.68 17.92-7.68h230.4c15.36 0 25.6 10.24 25.6 25.6 0 12.8-10.24 25.6-25.6 25.6z m25.6 332.8H204.8C148.48 793.6 102.4 747.52 102.4 691.2v-614.4c0-56.32 46.08-102.4 102.4-102.4h614.4c56.32 0 102.4 46.08 102.4 102.4V691.2c0 56.32-46.08 102.4-102.4 102.4z m51.2-716.8c0-28.16-23.04-51.2-51.2-51.2H204.8c-28.16 0-51.2 23.04-51.2 51.2V691.2c0 28.16 23.04 51.2 51.2 51.2h614.4c28.16 0 51.2-23.04 51.2-51.2v-614.4z"  horiz-adv-x="1024" />

    
    <glyph glyph-name="park" unicode="&#58880;" d="M920.209067 145.93280000000004c-4.161067 8.324267-15.579733 17.822933-15.579734 17.822933l-47.168 126.145067C847.645867 313.80693299999996 818.833067 326.4 806.346667 326.4h-247.466667c-12.592 0-41.4048-12.593067-51.115733-36.4992l-47.168-126.145067s-11.4176-9.498667-15.578667-17.822933c-4.162133-8.324267-8.750933-15.688533-8.750933-71.610667 0-54.5344 10.990933-73.9584 24.010666-80.6816l10.350934-5.869866v-50.693334c0-16.4352 3.842133-21.344 19.528533-21.344h35.0016c15.579733 0 26.144-0.106667 26.144 16.328534v49.3056h262.834133v-49.3056c0-16.4352 10.458667-16.328533 26.037334-16.328534h35.002666c15.579733 0 19.528533 4.9088 19.528534 21.344v50.693334l10.350933 5.869866c13.1264 6.7232 24.010667 26.1472 24.010667 80.682667-0.106667 55.921067-4.5888 63.392-8.8576 71.6096z m-396.864 32.657067c1.92 7.150933 15.045333 63.072 20.808533 82.496 2.346667 6.7232 17.927467 26.680533 35.9616 25.5072h204.8896c18.034133 1.173333 33.613867-18.784 35.9616-25.5072 5.869867-19.424 18.888533-75.345067 20.916267-82.496 2.346667-8.430933-5.336533-7.684267-5.336534-7.684267H528.7872c0-0.106667-7.790933-0.853333-5.4432 7.684267z m3.7184-54.9632H840.725333c20.618667 0 37.333333-16.714667 37.333334-37.333334v-13.92c0-20.618667-16.714667-37.333333-37.333334-37.333333H527.063467c-20.618667 0-37.333333 16.714667-37.333334 37.333333V86.29333299999996c0 20.618667 16.714667 37.333333 37.333334 37.333334zM86.263467 805.111467h328.174933c223.0784 0 264.747733-137.7312 262.626133-224.3968-2.122667-86.6656-32.133333-225.949867-262.626133-225.949867H148.014933V-55.46666700000003H86.263467V805.111467z m61.751466-59.9552v-329.416534h264.1312c70.578133 0 121.9072 16.040533 156.126934 45.982934 32.081067 28.872533 45.9904 64.1824 45.9904 121.928533 0 57.745067-13.909333 88.789333-45.9904 116.592-34.218667 29.941333-86.618667 44.913067-156.126934 44.913067H148.014933z"  horiz-adv-x="1024" />

    
    <glyph glyph-name="setting" unicode="&#59215;" d="M1019.80444476 286.08000000000004c-4.48000031-28.8-22.39999969-48-44.16-48H969.24444445a133.12000031 133.12000031 0 0 1-127.99999969-135.04000031 154.87999969 154.87999969 0 0 1 10.87999969-50.55999938 60.16000031 60.16000031 0 0 0-19.84000031-71.68000031l-127.99999969-72.31999969a87.04000031 87.04000031 0 0 0-24.31999969-4.48000031 76.15999969 76.15999969 0 0 0-48.64000031 19.84000031 192 192 0 0 1-106.87999969 63.99999938 200.32000031 200.32000031 0 0 1-106.24000031-63.99999938 64.00000031 64.00000031 0 0 0-49.27999969-19.2 71.68000031 71.68000031 0 0 0-24.32000062 4.47999938L208.92444445-19.200000000000045a59.52 59.52 0 0 0-19.84000031 71.68000031 154.87999969 154.87999969 0 0 1 12.16000031 50.55999938A134.4 134.4 0 0 1 64.92444445 236.15999999999997c-19.84000031 0-37.75999969 17.28-44.80000031 48A675.84 675.84 0 0 0 9.24444445 384a677.11999969 677.11999969 0 0 0 10.87999969 100.48000031c4.48000031 28.15999969 22.39999969 48 44.80000031 48h4.48000031A133.12000031 133.12000031 0 0 1 201.24444445 665.59999969a154.87999969 154.87999969 0 0 1-10.87999969 50.56000031 53.11999969 53.11999969 0 0 0 19.83999938 69.76000031L347.16444445 857.59999969a26.23999969 26.23999969 0 0 0 21.76000031 4.48000031 71.04 71.04 0 0 0 49.27999969-19.2A192 192 0 0 1 521.24444414 785.92000031 192 192 0 0 1 625.56444445 842.23999969a59.52 59.52 0 0 0 48 19.84000031 68.47999969 68.47999969 0 0 0 24.31999969-4.48000031l128.00000062-69.75999938a59.52 59.52 0 0 0 19.83999938-71.68000031 154.87999969 154.87999969 0 0 1-10.87999969-50.56000031 134.4 134.4 0 0 1 133.12000031-133.11999938h4.47999938c19.84000031 0 37.75999969-17.28 44.80000031-48A677.11999969 677.11999969 0 0 0 1033.24444476 384a839.68000031 839.68000031 0 0 0-13.44-97.92z m-42.24 192c0 6.40000031 0 8.32000031-4.48000031 10.87999969a176.64 176.64 0 0 0-177.28000031 174.72 156.79999969 156.79999969 0 0 0 15.36 64.00000031 21.76000031 21.76000031 0 0 1-4.47999938 19.84000031L682.52444414 818.56000031h-7.03999969a18.55999969 18.55999969 0 0 1-15.36-6.40000031A229.12000031 229.12000031 0 0 0 521.24444414 739.84000031 229.12000031 229.12000031 0 0 0 384.92444414 812.16a15.36 15.36 0 0 1-15.99999938 8.32000031h-6.40000031l-127.99999969-69.76000031a19.84000031 19.84000031 0 0 1-4.48000031-19.84000031 192 192 0 0 0 15.36-63.99999938A178.56 178.56 0 0 0 66.84444445 487.03999969s-1.92-8.95999969-4.48000031-8.95999969A668.80000031 668.80000031 0 0 1 53.40444445 384a667.51999969 667.51999969 0 0 1 8.95999969-91.51999969 49.92 49.92 0 0 1 4.48000031-10.88000062 177.28000031 177.28000031 0 0 0 177.91999969-176.64 192 192 0 0 0-15.36-67.83999938 18.55999969 18.55999969 0 0 1 4.48000031-19.2l121.60000031-67.84000031h7.03999969c6.40000031 0 13.44 0 15.36 6.40000031A238.72000031 238.72000031 0 0 0 521.24444414 30.079999690000022a231.67999969 231.67999969 0 0 0 139.52000062-76.15999969 28.8 28.8 0 0 1 15.99999938-6.40000031h6.40000031l127.99999969 69.76000031a21.76000031 21.76000031 0 0 1 4.48000031 19.84000031 167.04 167.04 0 0 0-15.36 63.99999938 179.20000031 179.20000031 0 0 0 172.8 184.96000031s0 6.40000031 4.48000031 10.87999969a654.07999969 654.07999969 0 0 1 8.95999969 91.52000062 663.04000031 663.04000031 0 0 1-8.95999969 89.59999969zM521.24444414 209.92000030999998a174.72 174.72 0 1 0 177.92000062 174.07999969A175.99999969 175.99999969 0 0 0 521.24444414 209.92000030999998z m0 307.2A134.4 134.4 0 0 1 384.92444414 384a135.67999969 135.67999969 0 0 1 270.72 0A135.04000031 135.04000031 0 0 1 521.24444414 517.12000031z m0 0"  horiz-adv-x="1024" />

    
    <glyph glyph-name="map-marker" unicode="&#58971;" d="M494.5 124.5l16.9-18.7 17.1 18.5c2.4 2.6 60.4 65.5 119.4 145.3C729 379.4 770.2 464.7 770.2 523.1c0 68.3-26.6 132.6-74.9 180.9-48.3 48.3-112.6 74.9-180.9 74.9s-132.7-26.6-181-74.9c-48.3-48.3-74.9-112.6-74.9-180.9 0-58.3 40.2-143.5 119.4-253.3 57.5-79.8 114.2-142.7 116.6-145.3zM304.4 523.1c0 115.7 94.1 209.8 209.8 209.8S724 638.8 724 523.1c0-25.5-11.5-60.3-34.1-103.2-19-36-45.5-77.3-79-122.6-38.7-52.4-77.7-98.1-99.3-122.7-21.1 24.5-59 70-96.6 122.1-32.7 45.4-58.7 86.7-77.3 122.8-22 43.1-33.3 78-33.3 103.6zM852.2 177.60000000000002c-35.6 15-85.9 27.4-145.4 36l-6.5-45.5c55.7-8 102-19.3 134.1-32.8 32.5-13.7 39.2-25.1 39.2-27.4 0-4.3-16.9-25.9-95.2-45.4-70.9-17.6-165.5-27.4-266.4-27.4-100.9 0-195.5 9.7-266.4 27.4-78.2 19.5-95.2 41.1-95.2 45.4 0 2.3 6.6 13.7 38.9 27.3 31.9 13.5 78 24.8 133.4 32.8l-6.6 45.5c-59.3-8.5-109.3-21-144.7-35.9-44.5-18.8-67-42.2-67-69.7 0-21.6 14-40.9 41.6-57.1 21.3-12.5 51.1-23.6 88.5-32.9 74.4-18.5 172.9-28.7 277.5-28.7s203.1 10.2 277.5 28.7c37.5 9.3 67.2 20.4 88.5 32.9 27.6 16.2 41.6 35.4 41.6 57.1 0 27.4-22.7 50.9-67.4 69.7zM511.4 436.5c48 0 87 39 87 87s-39 87-87 87-87-39-87-87 39.1-87 87-87z m0 128c22.6 0 41-18.4 41-41s-18.4-41-41-41-41 18.4-41 41 18.4 41 41 41z"  horiz-adv-x="1024" />

    
    <glyph glyph-name="task" unicode="&#58902;" d="M160.9 550H863c52.8 0 95.7 42.9 95.7 95.7s-42.9 95.7-95.7 95.7H160.9c-52.8 0-95.7-42.9-95.7-95.7s42.9-95.7 95.7-95.7z m473.4 127.7h228.8c17.6 0 31.9-14.3 31.9-31.9 0-17.6-14.3-31.9-31.9-31.9H634.3v63.8zM863.1 479.2H160.9c-52.8 0-95.7-42.9-95.7-95.7s42.9-95.7 95.7-95.7H863c52.8 0 95.7 42.9 95.7 95.7s-42.8 95.7-95.6 95.7z m0-127.6H506.6v63.8H863c17.6 0 31.9-14.3 31.9-31.9s-14.2-31.9-31.8-31.9zM863.1 218H160.9c-52.8 0-95.7-42.9-95.7-95.7 0-52.8 42.9-95.7 95.7-95.7H863c52.8 0 95.7 42.9 95.7 95.7 0.1 52.7-42.8 95.7-95.6 95.7z m0-127.7h-165v63.8H863c17.6 0 31.9-14.3 31.9-31.9 0.1-17.6-14.2-31.9-31.8-31.9z"  horiz-adv-x="1024" />

    
    <glyph glyph-name="controller" unicode="&#58964;" d="M890 776H134a70 70 0 0 1-70-70v-500a70 70 0 0 1 70-70h756a70 70 0 0 1 70 70V706a70 70 0 0 1-70 70z m-10-520a40 40 0 0 0-40-40H712V448a40 40 0 0 1-80 0v-232h-80V528a40 40 0 0 1-80 0v-312h-80V384a40 40 0 0 1-80 0v-168H184a40 40 0 0 0-40 40V656a40 40 0 0 0 40 40h656a40 40 0 0 0 40-40zM696 72H328a40 40 0 0 1 0-80h368a40 40 0 0 1 0 80z"  horiz-adv-x="1024" />

    
    <glyph glyph-name="expand" unicode="&#59012;" d="M753.6 284.48a32 32 0 1 0 28.8-56.96l-256-128a32 32 0 0 0-28.8 0l-256 128a32 32 0 0 0 28.8 56.96L512 163.84000000000003zM753.6 572.48a32 32 0 1 0 28.8-56.96l-256-128a32 32 0 0 0-28.8 0l-256 128a32 32 0 1 0 28.8 56.96L512 451.84z"  horiz-adv-x="1024" />

    
    </font>
</defs>
</svg>
